<?xml version="1.0" encoding="UTF-8"?>
<svg width="177px" height="13px" viewBox="0 0 177 13" version="1.1" xmlns="http://www.w3.org/2000/svg" xmlns:xlink="http://www.w3.org/1999/xlink">
    <!-- Generator: Sketch 63.1 (92452) - https://sketch.com -->
    <title>backButton</title>
    <desc>Created with Sketch.</desc>
    <g id="Page-1" stroke="none" stroke-width="1" fill="none" fill-rule="evenodd">
        <g id="Desktop-HD" transform="translate(-47.000000, -95.000000)" fill="#FFFFFF" fill-rule="nonzero">
            <path d="M53.7071068,95.7928932 C54.0675907,96.1533772 54.0953203,96.7206082 53.7902954,97.1128994 L53.7071068,97.2071068 L49.415,101.5 L53.7071068,105.792893 C54.0675907,106.153377 54.0953203,106.720608 53.7902954,107.112899 L53.7071068,107.207107 C53.3466228,107.567591 52.7793918,107.59532 52.3871006,107.290295 L52.2928932,107.207107 L47.2928932,102.207107 C46.9324093,101.846623 46.9046797,101.279392 47.2097046,100.887101 L47.2928932,100.792893 L52.2928932,95.7928932 C52.6834175,95.4023689 53.3165825,95.4023689 53.7071068,95.7928932 Z M136.948,95.624 C138.366667,95.624 139.433333,96.024 140.148,96.824 L140.148,96.824 L139.092,98.296 L138.935438,98.1516033 C138.405631,97.6932011 137.796485,97.464 137.108,97.464 C136.628,97.464 136.246667,97.576 135.964,97.8 C135.681333,98.024 135.54,98.3226667 135.54,98.696 C135.54,98.888 135.577333,99.0666667 135.652,99.232 C135.726667,99.3973333 135.809333,99.5333333 135.9,99.64 C135.990667,99.7466667 136.14,99.864 136.348,99.992 C136.556,100.12 136.721333,100.213333 136.844,100.272 C136.966667,100.330667 137.172,100.424 137.46,100.552 C137.748,100.68 137.950667,100.770667 138.068,100.824 C138.537333,101.037333 138.948,101.261333 139.3,101.496 C139.694667,101.730667 140.012,102.066667 140.252,102.504 C140.492,102.941333 140.612,103.442667 140.612,104.008 C140.612,104.946667 140.254667,105.709333 139.54,106.296 C138.825333,106.882667 137.934667,107.176 136.868,107.176 C136.121333,107.176 135.38,107.021333 134.644,106.712 C133.94,106.392 133.46,105.96 133.204,105.416 L133.204,105.416 L134.324,104.072 L134.457388,104.235918 C134.734939,104.553306 135.077143,104.808 135.484,105 C135.958667,105.224 136.430667,105.336 136.9,105.336 C137.390667,105.336 137.785333,105.218667 138.084,104.984 C138.382667,104.749333 138.532,104.429333 138.532,104.024 C138.532,103.682667 138.406667,103.381333 138.156,103.12 C137.905333,102.858667 137.593333,102.645333 137.22,102.48 C136.846667,102.314667 136.438667,102.122667 135.996,101.904 C135.553333,101.685333 135.145333,101.456 134.772,101.216 C134.398667,100.976 134.086667,100.64 133.836,100.208 C133.585333,99.776 133.46,99.2773333 133.46,98.712 C133.46,97.848 133.774667,97.1173333 134.404,96.52 C135.054667,95.9226667 135.902667,95.624 136.948,95.624 Z M122.532,95.624 C124.217333,95.624 125.609333,96.1573333 126.708,97.224 C127.817333,98.3013333 128.372,99.6933333 128.372,101.4 C128.372,103.074667 127.817333,104.456 126.708,105.544 C125.598667,106.632 124.206667,107.176 122.532,107.176 C120.846667,107.176 119.454667,106.642667 118.356,105.576 C117.257333,104.509333 116.708,103.117333 116.708,101.4 C116.708,99.768 117.252,98.3973333 118.34,97.288 C119.449333,96.1786667 120.846667,95.624 122.532,95.624 Z M88.26,95.624 C89.6893333,95.624 90.8253333,96.0026667 91.668,96.76 L91.668,96.76 L90.788,98.216 L90.55824,98.07312 C89.86128,97.66704 89.0952,97.464 88.26,97.464 C87.1933333,97.464 86.3186667,97.8213333 85.636,98.536 C84.9533333,99.2506667 84.612,100.205333 84.612,101.4 C84.612,102.573333 84.9693333,103.522667 85.684,104.248 C86.4093333,104.973333 87.3426667,105.336 88.484,105.336 C89.4653333,105.336 90.3506667,105.037333 91.14,104.44 L91.14,104.44 L91.892,105.912 L91.752875,106.04875 C91.411625,106.36025 90.954,106.618667 90.38,106.824 C89.724,107.058667 89.0333333,107.176 88.308,107.176 C86.6013333,107.176 85.2093333,106.648 84.132,105.592 C83.0653333,104.536 82.532,103.138667 82.532,101.4 C82.532,99.736 83.0386667,98.3546667 84.052,97.256 C85.0546667,96.168 86.4573333,95.624 88.26,95.624 Z M65.284,95.752 C66.5213333,95.752 67.444,95.9973333 68.052,96.488 C68.66,96.9786667 68.964,97.656 68.964,98.52 C68.964,99.7253333 68.4306667,100.573333 67.364,101.064 L67.364,101.064 L67.364,101.096 L67.586,101.162625 C68.09,101.333542 68.496,101.612667 68.804,102 C69.156,102.442667 69.332,103.010667 69.332,103.704 C69.332,104.792 68.9586667,105.624 68.212,106.2 C67.4653333,106.776 66.452,107.064 65.172,107.064 C63.892,107.064 62.852,107.037333 62.052,106.984 L62.052,106.984 L62.052,95.832 L62.73424,95.8032 C63.6319467,95.7690667 64.4818667,95.752 65.284,95.752 Z M169.556,95.8 L169.556,97.64 L165.044,97.64 L165.044,100.424 L169.076,100.424 L169.076,102.264 L165.044,102.264 L165.044,105.16 L169.716,105.16 L169.716,107 L163.076,107 L163.076,95.8 L169.556,95.8 Z M76.948,95.768 L81.684,107 L79.588,107 L78.42,104.136 L73.636,104.136 L72.468,107 L70.484,107 L75.22,95.768 L76.948,95.768 Z M95.812,95.8 L95.812,101.112 L100.228,95.8 L102.596,95.8 L97.988,101.016 L102.884,107 L100.388,107 L95.812,101.224 L95.812,107 L93.844,107 L93.844,95.8 L95.812,95.8 Z M115.828,95.8 L115.828,97.64 L112.196,97.64 L112.196,107 L110.228,107 L110.228,97.64 L106.596,97.64 L106.596,95.8 L115.828,95.8 Z M147.908,95.768 L152.644,107 L150.548,107 L149.38,104.136 L144.596,104.136 L143.428,107 L141.444,107 L146.18,95.768 L147.908,95.768 Z M156.292,95.8 L156.292,105.16 L161.332,105.16 L161.332,107 L154.324,107 L154.324,95.8 L156.292,95.8 Z M174.244,95.8 L174.244,100.376 L179.364,100.376 L179.364,95.8 L181.316,95.8 L181.316,107 L179.364,107 L179.364,102.216 L174.244,102.216 L174.244,107 L172.276,107 L172.276,95.8 L174.244,95.8 Z M191.22,95.768 C193.929333,95.768 195.284,96.92 195.284,99.224 C195.284,100.077333 195.065333,100.781333 194.628,101.336 C194.190667,101.869333 193.689333,102.232 193.124,102.424 L193.124,102.424 L196.628,107 L194.244,107 L191.156,102.808 L189.78,102.808 L189.78,107 L187.812,107 L187.812,95.8 L188.237,95.799 C188.671,95.797 189.132,95.792 189.62,95.784 C190.270667,95.7733333 190.804,95.768 191.22,95.768 Z M200.548,95.8 L200.548,107 L198.58,107 L198.58,95.8 L200.548,95.8 Z M208.916,95.768 L213.652,107 L211.556,107 L210.388,104.136 L205.604,104.136 L204.436,107 L202.452,107 L207.188,95.768 L208.916,95.768 Z M223.252,95.8 L223.252,97.16 L217.044,105.16 L223.412,105.16 L223.412,107 L214.42,107 L214.42,105.656 L220.612,97.64 L214.74,97.64 L214.74,95.8 L223.252,95.8 Z M122.532,97.464 C121.454667,97.464 120.558667,97.832 119.844,98.568 C119.14,99.304 118.788,100.248 118.788,101.4 C118.788,102.530667 119.145333,103.469333 119.86,104.216 C120.574667,104.962667 121.465333,105.336 122.532,105.336 C123.684,105.336 124.596,104.962667 125.268,104.216 C125.950667,103.469333 126.292,102.530667 126.292,101.4 C126.292,100.258667 125.929333,99.3146667 125.204,98.568 C124.478667,97.832 123.588,97.464 122.532,97.464 Z M65.412,102.184 L64.02,102.184 L64.02,105.144 L64.31248,105.1728 C64.69136,105.206933 65.0258667,105.224 65.316,105.224 C66.6813333,105.224 67.364,104.685333 67.364,103.608 C67.364,103.138667 67.1933333,102.784 66.852,102.544 C66.5106667,102.304 66.0306667,102.184 65.412,102.184 L65.412,102.184 Z M76.036,98.312 L74.388,102.296 L77.668,102.296 L76.036,98.312 Z M146.996,98.312 L145.348,102.296 L148.628,102.296 L146.996,98.312 Z M208.004,98.312 L206.356,102.296 L209.636,102.296 L208.004,98.312 Z M191.124,97.608 C191.070667,97.608 190.985333,97.6106667 190.868,97.616 C190.750667,97.6213333 190.585333,97.6266667 190.372,97.632 C190.158667,97.6373333 189.961333,97.64 189.78,97.64 L189.78,97.64 L189.78,100.968 L191.06,100.968 C191.689333,100.968 192.204,100.813333 192.604,100.504 C193.004,100.194667 193.204,99.7733333 193.204,99.24 C193.204,98.152 192.510667,97.608 191.124,97.608 Z M65.252,97.592 C64.7826667,97.592 64.372,97.608 64.02,97.64 L64.02,97.64 L64.02,100.472 L65.348,100.472 C65.8493333,100.472 66.252,100.344 66.556,100.088 C66.86,99.832 67.012,99.464 67.012,98.984 C67.012,98.536 66.8573333,98.192 66.548,97.952 C66.2386667,97.712 65.8066667,97.592 65.252,97.592 Z" id="backButton"></path>
        </g>
    </g>
</svg>