<?xml version="1.0" encoding="UTF-8"?>
<svg width="58px" height="58px" viewBox="0 0 58 58" version="1.1" xmlns="http://www.w3.org/2000/svg" xmlns:xlink="http://www.w3.org/1999/xlink">
    <!-- Generator: Sketch 63.1 (92452) - https://sketch.com -->
    <title>behance</title>
    <desc>Created with Sketch.</desc>
    <g id="behance" stroke="none" stroke-width="1" fill="none" fill-rule="evenodd">
        <g transform="translate(4.000000, 4.000000)">
            <rect id="Rectangle-Copy-10" fill="#D8D8D8" opacity="0" x="0" y="0" width="50" height="50"></rect>
            <g id="group" transform="translate(11.000000, 16.000000)" fill="#FFFFFF" fill-rule="nonzero">
                <path d="M25.6666667,2.33333333 L17.5,2.33333333 L17.5,0 L25.6666667,0 L25.6666667,2.33333333 Z M27.6803333,14 C27.1646667,15.5131667 25.3131667,17.5 21.7291667,17.5 C18.1428333,17.5 15.2378333,15.4828333 15.2378333,10.8791667 C15.2378333,6.3175 17.9503333,3.9725 21.6148333,3.9725 C25.2105,3.9725 27.4061667,6.0515 27.8856667,9.13616667 C27.9766667,9.7265 28.0128333,10.5221667 27.9965,11.6328333 L18.6316667,11.6328333 C18.7833333,15.379 22.6951667,15.4968333 23.9843333,14 L27.6803333,14 Z M18.7133333,9.33333333 L24.5058333,9.33333333 C24.3833333,7.5285 23.1805,6.7445 21.616,6.7445 C19.9056667,6.7445 18.9595,7.6405 18.7133333,9.33333333 Z M7.54366667,17.486 L-1.03620816e-15,17.486 L-1.03620816e-15,0.0245 L8.11183333,0.0245 C14.5005,0.119 14.6218333,6.37583333 11.2851667,8.0815 C15.323,9.5515 15.4583333,17.486 7.54366667,17.486 Z M3.5,7 L7.68133333,7 C10.6073333,7 11.0716667,3.5 7.31733333,3.5 L3.5,3.5 L3.5,7 Z M7.45616667,10.5 L3.5,10.5 L3.5,14.0186667 L7.39783333,14.0186667 C10.962,14.0186667 10.7438333,10.5 7.45616667,10.5 L7.45616667,10.5 Z" id="Shape"></path>
            </g>
        </g>
    </g>
</svg>