<?xml version="1.0" encoding="UTF-8"?>
<svg width="130px" height="188px" viewBox="0 0 130 188" version="1.1" xmlns="http://www.w3.org/2000/svg" xmlns:xlink="http://www.w3.org/1999/xlink">
    <!-- Generator: Sketch 63.1 (92452) - https://sketch.com -->
    <title>bulb</title>
    <desc>Created with Sketch.</desc>
    <g id="Page-1" stroke="none" stroke-width="1" fill="none" fill-rule="evenodd">
        <g id="Desktop-HD" transform="translate(-135.000000, -342.000000)" fill-rule="nonzero">
            <g id="innovation_-(1)" transform="translate(119.000000, 209.000000)">
                <g id="bulb" transform="translate(16.425100, 133.763606)">
                    <path d="M91.6606214,144.920047 C86.8311685,146.515619 81.9304847,147.92599 77.2150011,149.777993 C69.3511131,152.869412 62.9688272,150.732486 58.6949751,143.894323 C51.9992733,133.309416 42.6965218,125.929897 32.3395534,119.162965 C17.1388859,109.190643 6.69644039,95.1154234 2.56504997,77.3361983 C-5.84019262,41.5355634 15.0162059,11.1769668 51.8710578,2.68624719 C106.248704,-9.80764731 139.428042,39.7262993 124.526545,86.7386731 C120.494877,99.4605064 116.719641,111.797693 117.716873,125.317312 C118.272474,132.839292 114.169576,137.668745 106.832797,139.834163 C101.732666,141.386996 96.7180132,143.224753 91.6606214,144.920047 Z" id="Path" fill="#FFFFFF"></path>
                    <path d="M70.5477917,151.886426 C65.5188924,151.886426 61.2877787,149.322115 58.1108819,144.278969 C50.987795,133.095723 40.9299962,125.616482 31.9549067,119.761304 C16.7868667,110.155076 5.98970828,94.9848381 1.88123362,77.5071524 C-2.09344889,60.5399593 0.257169799,44.4275367 8.67665856,30.9079177 C17.5805172,16.6617438 32.8951542,6.3332677 51.728596,2.00243084 C75.5766911,-3.48234611 96.9174596,2.38707754 111.818957,18.5422387 C127.93138,35.9938017 133.060003,62.235254 125.224607,87.0093504 C121.392386,99.1185982 117.43195,111.640985 118.443428,125.317312 C118.999029,132.939015 115.067085,138.138868 107.046489,140.574964 C103.556177,141.600689 100.037372,142.811614 96.6325361,143.9798 L91.8743141,145.589617 L91.8743141,145.589617 L87.4580001,147.014235 C84.1528878,148.068452 80.7338061,149.165407 77.4856784,150.447563 C75.2828058,151.354962 72.9298352,151.84295 70.5477917,151.886426 Z M68.681543,1.41833771 C63.0787412,1.44570048 57.4969185,2.10519664 52.0420119,3.38430971 C33.5219858,7.65816187 18.5919956,17.6304836 9.88758334,31.6629649 C1.66754101,44.8549219 -0.626092982,60.596944 3.26311249,77.1794904 C7.33751822,94.5313302 17.2528552,108.521073 32.7384463,118.564626 C41.8417514,124.50528 52.1132427,132.112737 59.3075606,143.523922 C63.5101818,150.176885 69.4365902,152.071627 76.9443238,149.122669 C80.2636823,147.826267 83.6970102,146.729311 87.0306149,145.660848 L91.4326827,144.236231 L96.1766586,142.626413 C99.5814941,141.458227 103.114545,140.233056 106.647596,139.207332 C113.941637,137.056159 117.517427,132.297937 117.018811,125.431281 C115.97884,111.470031 119.996261,98.8194286 123.856974,86.5819652 C131.549908,62.3634696 126.535255,36.592141 110.778987,19.5109785 C99.9871534,7.72671362 84.6582241,1.1386459 68.681543,1.41833771 Z" id="Shape" fill="#231F20"></path>
                    <path d="M71.4767984,144.640513 L116.514444,144.640513 C119.093614,144.640513 121.184444,146.731343 121.184444,149.310513 L121.184444,155.413365 C121.184444,157.992535 119.093614,160.083365 116.514444,160.083365 L71.4767984,160.083365 C68.8976286,160.083365 66.8067984,157.992535 66.8067984,155.413365 L66.8067984,149.310513 C66.8067984,146.731343 68.8976286,144.640513 71.4767984,144.640513 Z" id="Rectangle" fill="#FFFFFF" transform="translate(93.995621, 152.361939) rotate(-18.460000) translate(-93.995621, -152.361939) "></path>
                    <path d="M74.8786286,167.229604 C71.7084886,167.241056 68.8909707,165.211293 67.8980034,162.200656 L67.2141871,160.163453 C65.9359697,156.304812 68.0188428,152.139066 71.8726859,150.846456 L110.821725,137.839699 C114.684084,136.560644 118.854086,138.642462 120.152969,142.498198 L120.822539,144.521154 C122.110039,148.384114 120.025332,152.559904 116.164041,153.852398 L116.164041,153.852398 L77.2150011,166.830663 C76.4628518,167.088886 75.673847,167.223594 74.8786286,167.229604 Z M113.158098,138.893916 C112.519467,138.894543 111.884899,138.995497 111.277603,139.193085 L72.2715788,152.199842 C69.1892894,153.265847 67.5379744,156.612935 68.5675736,159.707576 L69.2513899,161.730532 C69.7411453,163.22917 70.8145864,164.466966 72.2288403,165.16386 C73.6394974,165.874302 75.275387,165.99225 76.7733697,165.491522 L115.722409,152.484766 C117.216976,151.984476 118.451483,150.910782 119.154188,149.500028 C119.856893,148.089274 119.970195,146.457101 119.469153,144.962786 L118.799583,142.939829 C117.981015,140.521149 115.71154,138.893545 113.158098,138.893916 L113.158098,138.893916 Z" id="Shape" fill="#231F20"></path>
                    <path d="M76.3792576,159.301645 L121.416903,159.301645 C123.996073,159.301645 126.086903,161.392476 126.086903,163.971645 L126.086903,170.074498 C126.086903,172.653668 123.996073,174.744498 121.416903,174.744498 L76.3792576,174.744498 C73.8000878,174.744498 71.7092576,172.653668 71.7092576,170.074498 L71.7092576,163.971645 C71.7092576,161.392476 73.8000878,159.301645 76.3792576,159.301645 Z" id="Rectangle" fill="#FFFFFF" transform="translate(98.898080, 167.023072) rotate(-18.460000) translate(-98.898080, -167.023072) "></path>
                    <path d="M79.7650662,181.888868 C76.599711,181.871857 73.7948887,179.845516 72.784441,176.845723 L72.1148709,174.822766 C71.4675676,172.948042 71.6115915,170.890558 72.5137637,169.124297 C73.3692852,167.358157 74.9155511,166.023214 76.7876159,165.434538 L115.736655,152.427781 C119.591377,151.18396 123.72594,153.292651 124.982422,157.143264 L125.651992,159.180467 C126.278457,161.031663 126.140457,163.056298 125.268597,164.805367 C124.396736,166.554437 122.863077,167.883375 121.00774,168.497465 L121.00774,168.497465 L82.0587002,181.504222 C81.3190026,181.751704 80.5450316,181.881501 79.7650662,181.888868 L79.7650662,181.888868 Z M118.058782,153.538969 C117.414192,153.53767 116.773873,153.643587 116.164041,153.852398 L77.2150011,166.830663 C75.7201816,167.335009 74.4858056,168.410606 73.7816732,169.822359 C73.0688274,171.227924 72.955757,172.862305 73.4682574,174.352642 L74.1378276,176.375599 C74.6319637,177.875087 75.7039915,179.115425 77.1161199,179.821489 C78.5282484,180.527553 80.1637356,180.640973 81.6598074,180.136589 L120.608847,167.129832 C122.105721,166.632775 123.342709,165.559536 124.045934,164.147739 C124.749159,162.735941 124.860603,161.102061 124.355591,159.607853 L123.68602,157.584896 C123.190596,156.089475 122.118837,154.853619 120.70857,154.151568 C119.884039,153.746681 118.977357,153.537071 118.058782,153.538969 Z" id="Shape" fill="#231F20"></path>
                    <path d="M121.363894,167.642695 C123.20165,173.17021 115.665424,180.635205 104.695871,184.324964 C93.7263167,188.014723 83.1983942,186.518875 81.3606377,181.005606 L121.363894,167.642695 Z" id="Path" fill="#2E2E2E"></path>
                    <path d="M93.0567465,187.06023 C91.860471,187.067927 90.6652693,186.986977 89.4809568,186.818045 C84.7939656,186.148474 81.6598074,184.168256 80.6768214,181.233544 C80.5622854,180.856766 80.7625543,180.456228 81.1326989,180.321789 L121.135955,166.973124 C121.505553,166.850184 121.905362,167.046916 122.033464,167.414756 C123.01645,170.363714 121.720048,173.825534 118.372197,177.173385 C114.537567,180.762586 109.939725,183.436542 104.923809,184.994534 C101.103681,186.311883 97.0973149,187.00927 93.0567465,187.06023 Z M82.3151314,181.432991 C83.3551021,183.48444 85.9336595,184.880565 89.6804033,185.407673 C99.7830511,186.259394 109.791716,182.921455 117.360719,176.176153 C120.024754,173.497872 121.249925,170.833838 120.851032,168.568696 L82.3151314,181.432991 Z" id="Shape" fill="#231F20"></path>
                    <path d="M80.1639591,141.273027 C79.8373635,141.266223 79.5537744,141.046296 79.4658966,140.731672 L79.1097423,139.307055 C76.2605075,127.29753 73.2118263,114.960344 67.9122496,103.69162 C60.2402197,105.154111 52.3236191,104.664222 44.8904326,102.267003 C40.5436489,101.050969 36.6060089,98.6834633 33.4934935,95.414593 C30.2939045,92.0094014 29.0911248,87.1874955 30.3165967,82.6785135 C31.6313358,79.420147 34.2364952,76.8515589 37.513122,75.5830131 C40.7897488,74.3144673 44.4453683,74.4591954 47.6114518,75.9828118 C52.7400744,78.946016 58.2248513,84.929409 63.9375671,93.7620368 C65.6798673,96.4597577 67.2546657,99.2620424 68.6530506,102.153033 C74.9515092,100.872562 80.9232601,98.3229344 86.2043368,94.6595458 C86.0903675,94.1466835 85.9763981,93.6480674 85.8766748,93.1352052 L85.6202437,91.8815419 C83.5687947,82.1656513 81.0329757,70.0706497 85.235597,60.5399593 C85.9051672,59.0013726 88.42674,53.9439808 92.4584072,53.1034566 C94.4145458,52.7372826 96.4225185,53.3922897 97.7864762,54.8414898 C102.279533,59.2586016 104.373601,65.5673144 103.413715,71.7944367 C102.423531,77.8589989 99.7026863,83.508463 95.5783193,88.0635673 C93.2724435,90.733409 90.6618629,93.1240506 87.7999083,95.1866542 C90.9046378,108.241526 95.6181831,120.860428 101.83239,132.753815 C101.921419,132.923456 101.938359,133.121808 101.879386,133.304089 C101.820413,133.48637 101.690498,133.63721 101.518974,133.722555 C101.168201,133.890319 100.747523,133.752186 100.56448,133.409139 C94.3860303,121.581188 89.6782933,109.041576 86.546245,96.069917 C81.3599963,99.5850597 75.5466471,102.070968 69.422344,103.39245 C74.6791822,114.661174 77.6708787,126.941376 80.562852,138.908162 L80.9332525,140.332779 C81.0224361,140.714164 80.7869688,141.096003 80.4061441,141.18755 L80.1639591,141.273027 Z M42.3546136,75.9969215 C40.8912353,76.0066089 39.4422457,76.2867469 38.0807615,76.8233361 C35.1360504,77.8425383 32.7972344,80.1187074 31.6984756,83.0346679 C30.6351907,87.070913 31.7101084,91.3705836 34.5477103,94.431607 C37.4731085,97.4972743 41.1680625,99.7211347 45.2465869,100.870878 C52.323362,103.174892 59.8599787,103.693646 67.1856947,102.380972 C65.8528977,99.6663316 64.364056,97.0311292 62.7266423,94.4885917 C57.1421421,85.8554103 51.8140731,80.0287252 46.8848969,77.1652443 C45.5011297,76.3908924 43.9402862,75.9884108 42.3546136,75.9969215 L42.3546136,75.9969215 Z M93.6408396,54.3856122 C93.3781943,54.3887399 93.1162037,54.4125572 92.8573,54.4568431 C90.1932655,55.02669 87.8996315,58.2463253 86.6459682,61.0813139 C82.6427934,70.1561267 85.1216276,81.9946972 87.116092,91.5253875 L87.3867693,92.7648047 C87.3867693,93.0782205 87.5149848,93.3773901 87.5719695,93.690806 C90.1550545,91.765141 92.5154921,89.5576062 94.6095794,87.1090736 C98.5560689,82.7644698 101.163196,77.372119 102.117313,71.5807441 C103.000411,65.830586 101.078005,60.0051111 96.945952,55.9099528 C96.0773561,55.0011793 94.8959609,54.4563117 93.6408396,54.3856122 L93.6408396,54.3856122 Z" id="Shape" fill="#000000"></path>
                </g>
            </g>
        </g>
    </g>
</svg>