<?xml version="1.0" encoding="UTF-8"?>
<svg width="45px" height="88px" viewBox="0 0 45 88" version="1.1" xmlns="http://www.w3.org/2000/svg" xmlns:xlink="http://www.w3.org/1999/xlink">
    <!-- Generator: Sketch 63.1 (92452) - https://sketch.com -->
    <title>curvedPage</title>
    <desc>Created with Sketch.</desc>
    <g id="Page-1" stroke="none" stroke-width="1" fill="none" fill-rule="evenodd">
        <g id="Desktop-HD" transform="translate(-147.000000, -240.000000)" fill-rule="nonzero">
            <g id="innovation_-(1)" transform="translate(119.000000, 209.000000)">
                <g id="curvedPage" transform="translate(28.601171, 31.143834)">
                    <path d="M43.0855763,0.739102805 C43.0855763,0.739102805 7.84054212,-1.01317658 0.717455177,22.2365792 L0.717455177,68.7788293 C0.717455177,68.7788293 28.1128476,47.210122 43.0855763,54.4044398 L43.0855763,0.739102805 Z" id="Path" fill="#CCCCCC"></path>
                    <path d="M0.717455177,69.491138 C0.61390723,69.5107881 0.507587299,69.5107881 0.404039352,69.491138 C0.159438946,69.3712896 0.00460137594,69.1224435 0.00514648314,68.8500601 L0.00514648314,22.2365792 C-0.00171549438,22.1702741 -0.00171549438,22.1034378 0.00514648314,22.0371328 C7.21371047,-1.46905415 42.7436681,-0.00169823719 43.0998225,0.0267941106 C43.4820501,0.0420953393 43.783651,0.356569147 43.783651,0.739102805 L43.783651,54.4044398 C43.785095,54.6544938 43.6553246,54.8869993 43.4417307,55.0170253 C43.2301571,55.1391773 42.9694878,55.1391773 42.7579143,55.0170253 C28.3550325,48.0648924 1.44401005,69.0922451 1.13059422,69.2631992 C1.02686733,69.3889387 0.879138364,69.4704443 0.717455177,69.491138 Z M1.42976387,22.3505486 L1.42976387,67.3399657 C6.7578329,63.3652832 28.6684483,47.9794154 42.3875138,53.3217306 L42.3875138,1.42291915 C37.5153223,1.32319593 7.84054212,1.75058115 1.42976387,22.3505486 Z" id="Shape" fill="#231F20"></path>
                    <path d="M0.717455177,22.2365792 C0.717455177,22.2365792 3.13930474,41.226729 14.9636291,45.3011347 L14.9636291,86.615039 C14.9636291,86.615039 6.05977038,82.6118641 0.717455177,68.8215678 L0.717455177,22.2365792 Z" id="Path" fill="#FFFFFF"></path>
                    <path d="M14.9636291,87.2846092 C14.8649436,87.3049551 14.7631449,87.3049551 14.6644594,87.2846092 C14.2940589,87.1136551 5.43293873,83.010757 0.0621311787,69.0922451 C0.0421358554,69.0079374 0.0421358554,68.9201217 0.0621311787,68.835814 L0.0621311787,22.2365792 C0.061818958,21.8619082 0.35734246,21.5538092 0.731701351,21.5385167 C0.913258409,21.5186082 1.0952347,21.5721588 1.23707011,21.6872328 C1.37890552,21.8023068 1.46881128,21.9693398 1.48674857,22.1511022 C1.48674857,22.3363024 3.979829,40.7566052 15.2485525,44.6315645 C15.5335782,44.732259 15.7264774,44.9989138 15.7329225,45.3011347 L15.7329225,86.615039 C15.732519,86.8572183 15.6090948,87.0826016 15.4052605,87.2133783 C15.271378,87.2893789 15.114617,87.314663 14.9636291,87.2846092 L14.9636291,87.2846092 Z M1.42976387,68.6506137 C5.54690812,79.1785362 11.8152246,83.8797736 14.2513204,85.3613757 L14.2513204,45.7855046 C6.8718023,42.9362699 3.18204326,34.673489 1.42976387,28.690096 L1.42976387,68.6506137 Z" id="Shape" fill="#231F20"></path>
                </g>
            </g>
        </g>
    </g>
</svg>