<?xml version="1.0" encoding="UTF-8"?>
<svg width="58px" height="58px" viewBox="0 0 58 58" version="1.1" xmlns="http://www.w3.org/2000/svg" xmlns:xlink="http://www.w3.org/1999/xlink">
    <!-- Generator: Sketch 63.1 (92452) - https://sketch.com -->
    <title>dribbble</title>
    <desc>Created with Sketch.</desc>
    <g id="dribbble" stroke="none" stroke-width="1" fill="none" fill-rule="evenodd">
        <g transform="translate(4.000000, 4.000000)">
            <rect id="Rectangle-Copy-9" fill="#D8D8D8" opacity="0" x="0" y="0" width="50" height="50"></rect>
            <g id="group" transform="translate(11.000000, 11.000000)" fill="#FFFFFF" stroke="#FFFFFF" stroke-width="0.5">
                <path d="M14,0 C6.27116,0 0,6.27116 0,14 C0,21.72884 6.27116,28 14,28 C21.713664,28 28,21.72884 28,14 C28,6.27116 21.713664,0 14,0 Z M23.24728,6.453356 C24.917564,8.48806 25.91974,11.084612 25.95012,13.893712 C25.55532,13.817776 21.607376,13.013028 17.62908,13.514088 C17.537968,13.316716 17.462032,13.104112 17.370948,12.891536 C17.127992,12.31454 16.854656,11.72234 16.581348,11.16052 C20.984824,9.368772 22.989148,6.787424 23.24728,6.453356 Z M14,2.0650756 C17.03688,2.0650756 19.815628,3.2039 21.92624,5.071584 C21.713664,5.375272 19.906712,7.7896 15.655108,9.383948 C13.696312,5.785248 11.52494,2.83948 11.1909,2.383948 C12.08676,2.1713664 13.028204,2.0650756 14,2.0650756 Z M8.91324,3.188724 C9.232104,3.613876 11.35792,6.574848 13.347068,10.097612 C7.75922,11.585672 2.824304,11.5553666 2.2928416,11.5553666 C3.067232,7.850332 5.572672,4.767896 8.91324,3.188724 Z M2.0347068,14.015176 C2.0347068,13.893712 2.0347068,13.772248 2.0347068,13.650756 C2.5509764,13.665932 8.35142,13.741868 14.318864,11.95012 C14.668108,12.618228 14.986972,13.301512 15.29066,13.984824 C15.138816,14.03038 14.971796,14.075936 14.819952,14.121464 C8.655108,16.11064 5.375272,21.546644 5.101964,22.002176 C3.2039,19.891536 2.0347068,17.082436 2.0347068,14.015176 Z M14,25.965296 C11.236456,25.965296 8.68546,25.023852 6.665932,23.44468 C6.878536,23.004352 9.30804,18.32754 16.04988,15.973972 C16.08026,15.958796 16.095436,15.958796 16.125816,15.943592 C17.811276,20.301512 18.494588,23.960944 18.676784,25.008676 C17.23428,25.631228 15.655108,25.965296 14,25.965296 Z M20.66596,23.915416 C20.544468,23.186548 19.90674,19.694136 18.342744,15.396976 C22.093288,14.804776 25.373096,15.776572 25.783072,15.91324 C25.266808,19.238604 23.353568,22.108464 20.66596,23.915416 Z" id="Shape"></path>
            </g>
        </g>
    </g>
</svg>