<?xml version="1.0" encoding="UTF-8"?>
<svg width="68px" height="68px" viewBox="0 0 68 68" version="1.1" xmlns="http://www.w3.org/2000/svg" xmlns:xlink="http://www.w3.org/1999/xlink">
    <!-- Generator: Sketch 63.1 (92452) - https://sketch.com -->
    <title>gear3 2</title>
    <desc>Created with Sketch.</desc>
    <g id="Page-1" stroke="none" stroke-width="1" fill="none" fill-rule="evenodd">
        <g id="Desktop-HD" transform="translate(-358.000000, -297.000000)" fill="#FFFFFF" fill-rule="nonzero">
            <g id="innovation_-(1)" transform="translate(119.000000, 209.000000)">
                <g id="gear3-2" transform="translate(239.000000, 88.000000)">
                    <path d="M-2.84217094e-14,28.4897685 C0.384646695,26.9654279 0.755047216,25.4268411 1.15394008,23.9025005 C1.35338652,23.1047147 1.59557148,22.3211752 1.85200261,21.5518818 C2.10758597,20.5439777 3.03559295,19.8539212 4.07440573,19.8993256 C5.29957669,19.8993256 6.51050147,20.0845259 7.72142625,20.1700029 C8.36829413,20.2550129 9.02132902,20.2836129 9.67315207,20.25548 C10.1539486,20.2262958 10.6107833,20.0355296 10.9695539,19.7141254 C12.2374634,18.289508 13.4483881,16.8648906 14.6308206,15.2978115 C15.0285053,14.7323608 15.119266,14.0062756 14.8730055,13.3603318 C14.4456203,11.9357144 13.9612504,10.511097 13.5481114,9.08647964 C13.3534421,8.53691252 13.2476422,7.95982171 13.2346955,7.37693877 C13.2363314,6.94597956 13.4048249,6.53240443 13.7048193,6.22299869 C15.8009383,4.58902451 18.1298853,3.27809146 20.6142136,2.33379322 C21.3615111,2.01678756 22.2286174,2.2452818 22.7226473,2.889394 C23.7483719,4.07182643 24.8168349,5.22576652 25.8140671,6.4366913 C26.4802498,7.37486596 27.6332352,7.83717413 28.7630251,7.61912373 C30.3443504,7.3626926 31.9399218,7.20598469 33.5212472,6.99229208 C34.1371753,6.93010204 34.6766099,6.55249779 34.9458645,5.9950599 C35.4444806,5.11179712 35.9003582,4.200042 36.3704819,3.30253304 C36.8406057,2.40502409 37.19676,1.76394626 37.6383914,1.00889905 C38.0345648,0.225177379 38.9298506,-0.168748361 39.7753175,0.0686515688 C42.0404591,0.638498524 44.319847,1.22259165 46.5707424,1.87791565 C47.4704137,2.12174668 48.0689395,2.97165336 47.9953598,3.90087234 C47.9953598,5.14028947 47.8101596,6.36546043 47.7246825,7.60487755 C47.7246825,8.17472451 47.6392055,8.75881764 47.6392055,9.34291077 C47.61431,10.1016957 47.9530449,10.8268 48.5509606,11.2946366 C49.8046239,12.2918688 51.0725334,13.2748548 52.2977043,14.3148255 C53.0153591,14.968253 54.0378581,15.166156 54.9474927,14.8276877 C56.4860795,14.3433178 58.0246662,13.8304555 59.563253,13.4030703 C60.6061304,12.9382881 61.8291165,13.3945316 62.3127646,14.4287948 C63.3812276,16.2238128 64.4069521,18.047323 65.4041843,19.8850794 C65.7711396,20.3798139 65.9207893,21.002656 65.8186529,21.6100986 C65.7165165,22.2175412 65.3714033,22.7571931 64.8628297,23.1047147 C64.1077825,23.8170234 63.2815044,24.4438551 62.4979648,25.1276714 C61.9471128,25.6310362 61.4057582,26.1438985 60.873901,26.6662582 C60.4313049,27.1129902 60.2163078,27.7370063 60.2898079,28.3615529 C60.460762,30.0141091 60.6317161,31.6666652 60.8454087,33.3049752 C60.9563047,34.2123532 61.5270646,34.9984942 62.3555031,35.3849166 C63.3099967,35.8407942 64.2644904,36.2824256 65.2047379,36.809534 C65.7975923,37.0935456 66.3731866,37.4122631 66.9285249,37.7640277 C67.7451826,38.2097729 68.1375653,39.1669491 67.8687724,40.0576617 C67.3131716,42.1091107 66.7290785,44.1605597 66.1449853,46.1977626 C66.0397807,46.5108522 65.9012744,46.8117452 65.7318463,47.0952716 C65.4171312,47.7744949 64.7112249,48.184376 63.9653207,48.1209961 L59.6059915,47.7648417 L59.2783295,47.7648417 C58.0266925,47.5373796 56.7641172,48.1035569 56.1014328,49.1894591 C55.3748779,50.2151836 54.5343536,51.1554311 53.7508141,52.1384171 C52.9969197,53.0164589 52.7937693,54.2408518 53.2237056,55.3153139 C53.6938294,56.7399313 54.1497069,58.0363331 54.562846,59.4039658 C54.8176486,59.9260083 54.8425253,60.5308207 54.6314556,61.0720252 C54.4203858,61.6132297 53.9926047,62.0415055 53.4516444,62.2532006 C51.5996418,63.350156 49.7049007,64.4043728 47.7531749,65.4158512 C46.8789363,65.9894338 45.7101373,65.7904893 45.0748942,64.9599736 C44.2343699,64.0624647 43.4365842,63.107971 42.6387984,62.1107388 C40.9150114,60.0877821 40.5161185,59.9310742 37.8805764,60.2872286 L34.8034028,60.72886 C33.8012133,60.8244677 32.9238705,61.441857 32.4955226,62.3529238 C31.954168,63.4498792 31.4413058,64.5610807 30.8714588,65.64379 C30.5667255,66.1994154 30.2089011,66.7242246 29.8029958,67.2108691 C29.4541512,67.7308078 28.8067177,67.962034 28.2074243,67.780716 L21.7539075,65.9856981 C21.4608242,65.8818388 21.1791739,65.7481742 20.9133833,65.5868053 C20.2225285,65.283306 19.8035518,64.5716196 19.8734126,63.8202797 C19.987382,62.3956623 20.1013514,60.9710449 20.2010746,59.5464275 C20.2010746,59.1190423 20.2010746,58.6774109 20.2010746,58.2357795 C20.2238867,57.5118468 19.8947319,56.8216835 19.3178118,56.3837769 C18.0926408,55.4435295 16.8817161,54.4890358 15.6707913,53.5345422 C14.9672686,52.9486683 13.9992257,52.7955316 13.1492185,53.1356493 C11.795832,53.605773 10.4281993,54.0189121 9.06056659,54.4605435 L8.90385868,54.4605435 C7.10884077,54.9449134 6.49625529,54.7597131 5.55600782,53.1498955 C4.61576034,51.5400778 3.5472973,49.5313673 2.62129599,47.6793647 C2.3222675,47.2585894 2.20935877,46.7333914 2.30904057,46.2269001 C2.40872236,45.7204088 2.71222871,45.2771648 3.14840443,45.001084 C4.17412895,44.0608365 5.24259199,43.1490814 6.35379355,42.294311 C7.47875034,41.5428341 8.04086098,40.1881474 7.77841094,38.8609831 C7.55047216,37.4363657 7.39376425,35.8977789 7.18007164,34.4161768 C7.10513066,33.805063 6.73138941,33.2711469 6.18283947,32.9915594 C4.87219147,32.3077431 3.56154347,31.6381729 2.26514165,30.9401104 C1.35690248,30.592332 0.603670414,29.9300945 0.142461739,29.0738616 L-2.84217094e-14,28.4897685 Z M47.9668675,32.7636206 C47.6524343,29.0006681 45.8466391,25.5195999 42.9514947,23.0953848 C40.0563503,20.6711696 36.3121736,19.5050339 32.5525073,19.8565871 C24.9039579,20.7444181 19.3168641,27.5067498 19.8876587,35.1854702 C20.5818816,42.8983072 27.3540353,48.6158854 35.0740801,48.0070267 C38.8204074,47.722057 42.294205,45.9406605 44.7118425,43.0646904 C47.1294801,40.1887202 48.2873041,36.4604382 47.9241289,32.7208821 L47.9668675,32.7636206 Z" id="gear3"></path>
                </g>
            </g>
        </g>
    </g>
</svg>