<?xml version="1.0" encoding="UTF-8"?>
<svg width="58px" height="58px" viewBox="0 0 58 58" version="1.1" xmlns="http://www.w3.org/2000/svg" xmlns:xlink="http://www.w3.org/1999/xlink">
    <!-- Generator: Sketch 63.1 (92452) - https://sketch.com -->
    <title>gear2</title>
    <desc>Created with Sketch.</desc>
    <g id="Page-1" stroke="none" stroke-width="1" fill="none" fill-rule="evenodd">
        <g id="Desktop-HD" transform="translate(-356.000000, -471.000000)" fill="#FFFFFF" fill-rule="nonzero">
            <g id="innovation_-(1)" transform="translate(119.000000, 209.000000)">
                <g id="gear2" transform="translate(237.716286, 262.604670)">
                    <path d="M0.67918731,24.1423181 C0.992603135,22.9029009 1.29177279,21.6492376 1.61943479,20.4098205 C1.7761427,19.7544965 1.97558913,19.1276649 2.17503557,18.486587 C2.38967198,17.6651233 3.15049755,17.1063921 3.99854582,17.1474467 C4.995778,17.1474467 5.97876399,17.2899084 6.97599617,17.3611393 C7.50668999,17.4108879 8.04087382,17.4108879 8.57156764,17.3611393 C8.96220384,17.3348214 9.33302874,17.1794758 9.62578451,16.9195079 C10.6657552,15.7513216 11.634495,14.5403969 12.6032349,13.3152259 C12.9363122,12.8571251 13.01158,12.2603588 12.8026813,11.7339006 C12.4465269,10.5657143 12.0618802,9.41177426 11.7199721,8.25783418 C11.5676165,7.79795359 11.4859579,7.3176088 11.4777871,6.83321679 C11.4706023,6.48288863 11.6039972,6.14427087 11.8481876,5.89296931 C13.5759683,4.55173812 15.4973471,3.48056944 17.5466572,2.71607254 C18.15708,2.44522071 18.8737222,2.63474592 19.2704442,3.1719501 C20.1109685,4.14068992 20.9799851,5.06669123 21.792017,6.02118488 C22.333519,6.78958108 23.2787086,7.16430121 24.1996204,6.97567853 C25.481776,6.77623209 26.792424,6.64801653 28.0745797,6.46281627 C28.5620546,6.40837044 28.9872359,6.10697607 29.2000274,5.66503053 C29.5989203,4.93847566 29.9693208,4.24041314 30.3682137,3.45687358 C30.7671066,2.67333401 31.0377839,2.20321028 31.4081844,1.5906248 C31.7068015,0.928718366 32.45548,0.597336096 33.1462176,0.82133141 C34.9982202,1.29145515 36.8502228,1.77582506 38.6737331,2.2459488 C39.3972073,2.45484654 39.8698103,3.14879524 39.7991808,3.89850497 C39.7991808,4.89573714 39.6424729,5.90721549 39.571242,6.90444766 C39.571242,7.3745714 39.571242,7.85894131 39.571242,8.32906505 C39.5485745,8.94883282 39.8239723,9.54199722 40.3120431,9.92463652 C41.3377676,10.7366684 42.3777383,11.5344542 43.3607243,12.3892246 C43.9503085,12.9173549 44.7835279,13.0763244 45.5261427,12.8023636 C46.779806,12.417717 48.0334693,11.9903317 49.3013788,11.605685 C50.1514718,11.2318574 51.1445251,11.6050431 51.5380281,12.4462093 C52.4117934,13.9088165 53.2523177,15.3904186 54.0596009,16.8910156 C54.3600856,17.2932896 54.4828895,17.8009938 54.3994704,18.2961268 C54.3160512,18.7912599 54.0336741,19.2306999 53.6179695,19.5123115 C52.9911378,20.0964047 52.3215676,20.6092669 51.694736,21.1791139 C51.0679043,21.7489608 50.797227,21.9911458 50.3698418,22.4327772 C49.9869629,22.8010341 49.8064083,23.3320772 49.8854719,23.8573946 C50.0279336,25.1965349 50.1703954,26.5499214 50.3413495,27.8890618 C50.4284379,28.6290453 50.8996195,29.2681192 51.5807666,29.5701103 L53.9028929,30.695558 C54.3931491,30.9277362 54.8688926,31.1893951 55.3275103,31.4790976 C55.9992794,31.8353187 56.3224118,32.6192141 56.0968037,33.3453464 C55.6409262,35.0263949 55.1708024,36.6931973 54.6721863,38.3599996 C54.5845729,38.6137332 54.4699454,38.8573167 54.3302782,39.0865545 C54.0833369,39.6419509 53.5112159,39.9795023 52.9056608,39.9270787 L49.3583635,39.6421552 L49.0876862,39.6421552 C48.0658493,39.4646921 47.0389393,39.9273658 46.4948825,40.8103415 C45.9107894,41.6508658 45.226973,42.4201592 44.5858952,43.2179449 C43.9639061,43.9309126 43.793379,44.9320715 44.1442638,45.8107485 C44.5289105,46.9077039 44.9135572,48.0189055 45.2412192,49.1443532 C45.4639784,49.5729243 45.4933542,50.0761649 45.321972,50.5277432 C45.1505899,50.9793216 44.7947242,51.3363561 44.3437103,51.5092181 C42.8193697,52.406727 41.2807829,53.2614975 39.7137038,54.0877756 C39.0046957,54.5569482 38.052338,54.3877795 37.5482853,53.7031289 C36.8502228,52.976574 36.209145,52.1930344 35.553821,51.423741 C34.1292036,49.7711849 33.8157878,49.6429693 31.6646155,49.9991237 L29.1572889,50.355278 C28.339345,50.4307867 27.6231809,50.9353569 27.276794,51.6801722 C26.8351626,52.5776811 26.4220235,53.4751901 25.9518998,54.3584529 C25.7054457,54.8135883 25.4143411,55.2430868 25.0828832,55.6406085 C24.7952799,56.057552 24.2717491,56.2416508 23.7864814,56.0964861 L18.515397,54.6718687 C18.2761824,54.5939941 18.046732,54.4888293 17.8315807,54.3584529 C17.2761842,54.1115116 16.9386328,53.5393906 16.9910564,52.9338355 L17.2474875,49.4292767 C17.2688418,49.0734424 17.2688418,48.7166479 17.2474875,48.3608137 C17.2656144,47.7724168 17.0007703,47.2109471 16.5351788,46.8507192 C15.5237005,46.0814258 14.5407145,45.2978863 13.5434823,44.5143467 C12.9753456,44.0409851 12.1941932,43.9153452 11.5062795,44.1866847 C10.3950779,44.5713314 9.26963016,44.9132396 8.1584286,45.2693939 C8.11590349,45.275434 8.07273815,45.275434 8.03021303,45.2693939 C6.60559565,45.6682868 6.06424104,45.5258251 5.30919382,44.2151771 C4.55414661,42.9045291 3.67088383,41.2519729 2.90159044,39.7418785 C2.66043203,39.3988892 2.56969689,38.9723365 2.65037318,38.5608874 C2.73104948,38.1494382 2.97614845,37.7887354 3.32897565,37.5622139 C4.18374609,36.7929205 5.05276269,36.0521194 5.95027165,35.3540569 C6.86877489,34.7206343 7.31342181,33.5949459 7.07571938,32.5048221 C6.89051912,31.3081435 6.76230356,30.0972187 6.59134947,28.886294 C6.54377151,28.3709811 6.23799731,27.915002 5.77931756,27.6753692 L2.57392844,26.0085668 C1.83762573,25.7268913 1.22625345,25.191309 0.850141396,24.4984724 L0.67918731,24.1423181 Z M39.7991808,27.5898921 C39.5427749,24.5204656 38.0684088,21.6813846 35.7050516,19.7061211 C33.3416944,17.7308576 30.2860132,16.7837837 27.2198093,17.0762158 C20.9828905,17.8069249 16.4290188,23.3218205 16.8913332,29.5843565 C17.4647199,35.8764484 22.9860384,40.5410106 29.2855045,40.0552943 C32.3467345,39.8317141 35.1883757,38.3828258 37.1672916,36.0365502 C39.1462075,33.6902746 40.0950894,30.644979 39.7991808,27.5898921 L39.7991808,27.5898921 Z" id="Shape"></path>
                    <path d="M23.9716816,56.9370103 C23.7938401,56.9334096 23.6169916,56.9095112 23.4445732,56.8657795 L22.0199558,56.4668866 L18.187735,55.3984236 C17.9273569,55.3161864 17.6784427,55.2013029 17.446934,55.0565154 C16.5953507,54.6871724 16.0738868,53.8161558 16.1505321,52.891097 L16.2645015,51.3667564 C16.2645015,50.7114324 16.3642248,50.0418622 16.4069633,49.3865382 C16.4284117,49.0544734 16.4284117,48.7213708 16.4069633,48.389306 C16.4314531,48.0127776 16.2656273,47.6490308 15.9653319,47.4205662 C15.015587,46.7177549 14.1038318,46.0054462 13.2300665,45.2836401 L12.9736354,45.0841937 C12.5809334,44.7397685 12.0212072,44.6614069 11.549018,44.8847472 L9.16990694,45.6540406 L8.18692095,45.9674565 L8.04445921,45.9674565 C7.38968309,46.2861999 6.63065658,46.3132097 5.95488046,46.0418137 C5.27910435,45.7704177 4.74959713,45.2259244 4.49716191,44.5428391 C3.55691443,42.9187752 2.71639018,41.2947114 2.07531235,40.0410481 C1.43059936,39.0324273 1.69431758,37.6949992 2.67365165,37.0066131 C3.67088383,36.1091041 4.51140808,35.3825493 5.32344,34.7557176 C6.02175255,34.2939335 6.36645957,33.4519442 6.1924566,32.6330377 C6.07848721,31.8779905 5.97876399,31.1371894 5.87904078,30.3821422 L5.70808669,28.9575248 C5.6862426,28.669065 5.51258703,28.4140084 5.25220913,28.2879547 L3.97005348,27.6041383 L2.06106618,26.6211523 C1.1722818,26.2631232 0.443434976,25.5950136 0.00961713694,24.7406574 C-0.00320571231,24.6700036 -0.00320571231,24.5976185 0.00961713694,24.5269648 L0.00961713694,24.0853334 C0.00274279056,24.0047514 0.00274279056,23.9237304 0.00961713694,23.8431484 L0.294540615,22.7034545 C0.508233223,21.8344379 0.721925831,20.9654213 0.949864613,20.0964047 C1.1778034,19.2273881 1.32026513,18.7857567 1.53395774,18.1446789 C1.85222721,17.0315564 2.88398634,16.2753238 4.04128435,16.3069224 C4.71085452,16.3069224 5.38042469,16.3069224 6.03574869,16.435138 L7.04722704,16.520615 L7.46036608,16.520615 C7.81566721,16.5554791 8.17352798,16.5554791 8.52882912,16.520615 C8.74177108,16.50499 8.94743982,16.4364337 9.12716842,16.3211686 C10.2098776,15.0817515 11.221356,13.813842 12.0761264,12.745379 C12.255906,12.4636936 12.2826491,12.1106858 12.1473573,11.8051315 C12.0048955,11.3065154 11.8339415,10.7936531 11.6772335,10.295037 C11.5205256,9.79642096 11.2640945,8.98438905 11.0646481,8.32906505 C10.8952462,7.80881297 10.8040259,7.26629228 10.7939708,6.7192474 C10.7889068,6.14995381 11.0273717,5.60563172 11.4492948,5.22339914 C13.2158173,3.84457502 15.1801198,2.73995503 17.2759799,1.94677915 C18.1646519,1.58578852 19.1849167,1.85244862 19.7833065,2.60210315 C20.06823,2.94401132 20.3816458,3.28591949 20.6808154,3.61358149 C21.2364162,4.24041314 21.7777708,4.86724479 22.3048793,5.50832262 C22.6846444,6.08628056 23.3818545,6.36969929 24.0571587,6.22063131 C24.8929342,6.08766702 25.7334584,5.97369763 26.5787314,5.87872314 L28.0033488,5.70776905 C28.2580977,5.66388248 28.4757921,5.49928422 28.5874419,5.26613766 L29.2712583,3.98398201 L29.9550746,2.70182636 C30.2257519,2.1889641 30.5106754,1.67610184 30.8098451,1.17748576 C31.2845804,0.260876405 32.3371827,-0.197035341 33.3314179,0.0805303677 C35.5253286,0.621884975 37.2918542,1.09200871 38.8874257,1.50514776 C39.9170919,1.79883952 40.6004724,2.77339956 40.5257357,3.84152027 C40.5137337,4.52733913 40.4661826,5.21207454 40.3832739,5.89296931 L40.2977969,6.90444766 C40.2977969,7.36032522 40.2977969,7.81620279 40.2977969,8.32906505 C40.2784777,8.73108988 40.4533571,9.11794419 40.7679206,9.36903574 L41.4374908,9.89614417 C42.2495227,10.537222 43.0615546,11.1782998 43.8450942,11.84787 C44.2350877,12.1911099 44.7810078,12.2948347 45.2697116,12.1185473 L47.107468,11.5344542 L49.0449476,10.9218687 C50.2107981,10.468252 51.5311535,10.9656882 52.107875,12.0758088 C52.9816404,13.5574109 53.8221646,15.0532591 54.6294478,16.5633536 C55.4065544,17.6864423 55.1546209,19.2232372 54.0596009,20.03942 C53.6892003,20.3813282 53.3045536,20.7089902 52.9056608,21.0366522 L52.1221212,21.7062223 C51.6804898,22.1051152 51.2531046,22.5040081 50.8399656,22.9313933 C50.6197159,23.1343786 50.5132107,23.4325933 50.5550421,23.729179 L50.6405191,24.5981956 C50.7544885,25.6381663 50.8684579,26.6923832 51.0109196,27.7466001 C51.06425,28.2540054 51.3848513,28.6941529 51.8514439,28.9005401 L52.8059376,29.3564177 L54.2305549,30.0117417 C54.7203237,30.2606447 55.1959251,30.5364935 55.6551723,30.8380198 C56.5851362,31.364516 57.0282708,32.4634897 56.7236354,33.4878081 C56.2677578,35.1688566 55.7976341,36.835659 55.299018,38.5167075 C55.2071794,38.796208 55.0828626,39.0639672 54.9286175,39.3144932 C54.5501983,40.1548976 53.6812819,40.6636711 52.763199,40.5824027 L49.2159017,40.3117254 L48.9024859,40.3117254 C48.1454988,40.1608231 47.3767971,40.5107545 46.9934986,41.180742 C46.5661134,41.7933275 46.0959897,42.3489283 45.5688812,42.9187752 L44.9990343,43.6168378 C44.5312709,44.1376198 44.4089248,44.8828187 44.6856184,45.5258251 C45.0702651,46.6512728 45.4406657,47.7624744 45.7825738,48.9021683 C46.0535405,49.4843861 46.0760781,50.1517661 45.8450074,50.7509379 C45.6139367,51.3501097 45.1491294,51.8295451 44.5574029,52.079065 C43.1327855,52.9195893 41.6226911,53.7601136 39.9131502,54.6718687 C38.9160326,55.285301 37.6188494,55.0660588 36.8787152,54.1590064 C36.3088682,53.546421 35.7675136,52.9195893 35.2404052,52.2785115 L34.8700046,51.8511263 C33.6163413,50.4265089 33.5308643,50.3410318 31.621877,50.597463 L29.1145504,50.9678635 C28.5345126,51.0143365 28.0236647,51.3675824 27.77541,51.8938648 L27.3337786,52.7771276 C27.0488552,53.389713 26.7496855,54.0022985 26.4362697,54.5863917 C26.1739564,55.0930852 25.8587875,55.5706138 25.4960222,56.011009 C25.1669046,56.5473695 24.5993657,56.8921361 23.9716816,56.9370103 Z M12.1616035,43.3461605 C12.7824819,43.3511614 13.3821135,43.5728739 13.8568982,43.9729921 L14.1133293,44.1724385 L16.8343485,46.2951184 C17.4711088,46.7838677 17.840574,47.5439102 17.8315807,48.3465675 C17.8530306,48.7261627 17.8530306,49.1066662 17.8315807,49.4862614 C17.8315807,50.1558316 17.7318574,50.8111556 17.6891189,51.4807257 L17.5609034,52.9908202 C17.5275454,53.3278199 17.7269597,53.6445367 18.0452733,53.7601136 C18.2142738,53.8679244 18.3961495,53.9540761 18.5866279,54.0165447 C19.8545374,54.3869452 21.1224468,54.7288534 22.4046025,55.0850077 L23.8292199,55.4839006 C23.9859278,55.4839006 24.1568819,55.5551315 24.3848207,55.270208 C24.6908302,54.9046424 24.9581831,54.5083873 25.1826064,54.0877756 C25.481776,53.5179286 25.7666995,52.9195893 26.051623,52.3354962 L26.4932544,51.4379872 C26.9461114,50.4838943 27.8644476,49.8356569 28.9151039,49.7284464 L31.4224306,49.3580458 C33.8300339,49.0303838 34.3856347,49.2440764 35.9527138,51.096079 L36.3231144,51.5234643 C36.8502228,52.1502959 37.3630851,52.7628814 37.9186858,53.3469745 C38.0569328,53.5619723 38.2790806,53.7090647 38.5309893,53.7524039 C38.782898,53.795743 39.0414306,53.7313482 39.24358,53.5749133 C40.9246285,52.6916505 42.434723,51.8511263 43.830848,51.0248482 C44.6001414,50.5689706 44.6713723,50.3695242 44.4149411,49.4720152 C44.0872791,48.3608137 43.7168786,47.2638583 43.3322319,46.1669029 C42.9023477,45.055471 43.115592,43.7978762 43.8878327,42.8902829 L44.4719258,42.1779742 C44.9278034,41.6366196 45.3694348,41.1095112 45.7825738,40.525418 C46.4869213,39.4324871 47.7795224,38.8704866 49.0591938,39.1008006 L49.2728864,39.1008006 L52.8201837,39.3857241 C53.1534322,39.4210575 53.4688986,39.2282725 53.5894771,38.9156004 C53.6994868,38.7286032 53.79475,38.5333137 53.8744006,38.3315072 C54.3445243,36.6647049 54.8146481,34.9979026 55.299018,33.3311002 C55.4509498,32.906582 55.2529693,32.4363784 54.8431404,32.248391 C54.4125961,31.973856 53.9653477,31.726442 53.5040001,31.50759 L52.1791059,30.852266 L51.1961199,30.3821422 C50.3051647,29.9666872 49.6913103,29.1212913 49.5720561,28.1454929 C49.4295943,27.0912761 49.315625,26.022813 49.2016556,24.95435 L49.1019323,24.0995795 C49.0138541,23.3780525 49.2666136,22.6566345 49.7857487,22.1478537 C50.2273801,21.6919762 50.6832576,21.2645909 51.2103661,20.8514519 L52.022398,20.1533894 C52.3927985,19.8542197 52.763199,19.5408039 53.1051072,19.2131419 C53.7889236,18.5720641 53.8459082,18.2586482 53.418523,17.4466163 C52.6064911,16.0219989 51.7659669,14.4834122 50.9111964,13.0160563 C50.7969724,12.7531732 50.5793151,12.5490878 50.3096321,12.4520019 C50.039949,12.354916 49.7421531,12.3734383 49.486579,12.503194 C48.8455012,12.6883943 48.2186696,12.9020869 47.5775917,13.1015333 L45.7255891,13.6998726 C44.7456281,14.0486443 43.6534811,13.8356757 42.8763544,13.1442718 C42.107061,12.4889478 41.3092752,11.8621162 40.5114895,11.2352845 L39.8419193,10.6939299 C39.1839974,10.1768154 38.8090085,9.37930372 38.830441,8.54275766 C38.830441,8.05838774 38.830441,7.55977166 38.830441,7.11814027 C38.830441,6.67650888 38.830441,6.42007775 38.9301642,6.0639234 C38.9301642,5.42284557 39.0583798,4.78176775 39.0583798,4.14068992 C39.1140403,3.72011884 38.862831,3.31938012 38.4600405,3.18619627 C36.8787152,2.73031871 35.1264358,2.26019497 32.9467712,1.76157889 C32.5619458,1.63436333 32.1444262,1.82754405 31.9922775,2.20321028 C31.6931079,2.68758019 31.4366767,3.1719501 31.1659994,3.62782767 L30.4821831,4.90998331 C30.2542443,5.33736853 30.0263055,5.77899992 29.7841206,6.20638514 C29.4611748,6.83963055 28.8497295,7.27561761 28.1458106,7.3745714 L26.7211932,7.54552548 C25.8949151,7.65949487 25.068637,7.75921809 24.2566051,7.88743366 C23.0798302,8.11296909 21.8791483,7.63491978 21.1794315,6.6622627 C20.6665693,6.03543105 20.1252147,5.43709175 19.5838601,4.82450627 L18.6721049,3.79878175 C18.4669507,3.49015259 18.0652944,3.38060995 17.7318574,3.54235062 C15.7665785,4.2833193 13.9264584,5.32108936 12.2755729,6.61952418 C12.2270484,6.73749602 12.1981739,6.86261908 12.1900958,6.9899247 C12.1974976,7.392974 12.269649,7.79221223 12.4037884,8.17235713 L13.0021277,10.124083 C13.1730818,10.622699 13.3297897,11.1355613 13.4864976,11.6484236 C13.7610649,12.4015634 13.6378943,13.2423368 13.1588356,13.8850729 C12.3040652,14.9677821 11.2783407,16.2499377 10.1671391,17.5178472 C9.75022743,17.9104886 9.21328276,18.151361 8.64279851,18.2016635 C8.19746266,18.2448441 7.74899401,18.2448441 7.30365817,18.2016635 L6.91901147,18.2016635 L5.87904078,18.1161865 C5.25220913,18.1161865 4.6111313,18.0022171 3.98429965,17.9879709 C3.45718131,17.9654354 2.98688832,18.3166668 2.85885191,18.8284952 C2.65940548,19.4553269 2.45995905,20.0821585 2.30325113,20.7089902 C2.07531235,21.5780068 1.86161974,22.4327772 1.64792713,23.3017938 L1.391496,24.3275183 L1.391496,24.5269648 C1.7176991,25.012061 2.18521799,25.3850814 2.73063635,25.5954278 L4.65386982,26.6069061 L5.95027165,27.2764763 C6.61283837,27.6213742 7.06115011,28.2724937 7.14695025,29.0145095 C7.14695025,29.4846333 7.26091964,29.9405108 7.33215051,30.4391269 C7.41762756,31.179928 7.51735077,31.8637443 7.63132017,32.6472839 C7.87736625,33.9848964 7.32071033,35.3431368 6.20670278,36.1233503 C5.42316321,36.7359358 4.59688513,37.4339983 3.6281453,38.3030149 C3.07254452,38.801631 3.029806,39.0153236 3.357468,39.6421552 C3.97005348,40.8673262 4.78208539,42.49139 5.73657904,44.0727153 C6.32067217,45.0699475 6.46313391,45.1269322 7.65981251,44.7992702 L8.72827555,44.457362 C9.51181512,44.2009309 10.3096009,43.9587459 11.0788942,43.6880686 C11.4180136,43.5140518 11.7840477,43.398462 12.1616035,43.3461605 L12.1616035,43.3461605 Z M28.3167646,40.8388406 C21.6838314,40.8457452 16.2499329,35.5728119 16.0574489,28.9426685 C15.8649649,22.3125251 20.9838052,16.7332284 27.6059679,16.3553224 C34.2281306,15.9774165 39.9484575,20.9381562 40.5114895,27.5471536 C40.868228,30.6604658 39.9482035,33.7854652 37.9614244,36.2088273 C35.8594841,38.8861641 32.735276,40.5644577 29.3424892,40.8388406 C29.000581,40.8388406 28.6586728,40.8388406 28.3167646,40.8388406 Z M28.2312876,17.7742783 L27.276794,17.7742783 C22.3853613,18.2728367 18.4439913,22.0047314 17.6793083,26.8616784 C16.9146253,31.7186254 19.5186432,36.481033 24.0202567,38.4584427 C28.5218703,40.4358524 33.7907131,39.1317317 36.8502228,35.282826 C38.5911503,33.1574608 39.4025126,30.4203968 39.1011183,27.6896154 L39.1011183,27.6896154 C38.665883,22.0277426 33.9094416,17.6765027 28.2312876,17.745786 L28.2312876,17.7742783 Z"></path>
                </g>
            </g>
        </g>
    </g>
</svg>