<?xml version="1.0" encoding="UTF-8"?>
<svg width="31px" height="31px" viewBox="0 0 31 31" version="1.1" xmlns="http://www.w3.org/2000/svg" xmlns:xlink="http://www.w3.org/1999/xlink">
    <!-- Generator: Sketch 63.1 (92452) - https://sketch.com -->
    <title>gear1</title>
    <desc>Created with Sketch.</desc>
    <g id="Page-1" stroke="none" stroke-width="1" fill="none" fill-rule="evenodd">
        <g id="Desktop-HD" transform="translate(-119.000000, -331.000000)" fill="#FFFFFF" fill-rule="nonzero">
            <g id="innovation_-(1)" transform="translate(119.000000, 209.000000)">
                <g id="gear1" transform="translate(0.185200, 122.305079)">
                    <path d="M0.0142461739,11.3240319 C0.242184956,10.6544617 0.470123738,9.89941453 0.712308694,9.28682905 C0.840524259,8.94492088 0.968739824,8.58876653 1.12544774,8.24685836 C1.27808343,7.80022923 1.7266146,7.52513011 2.19391078,7.59153436 C2.74951156,7.59153436 3.29086617,7.76248845 3.83222077,7.86221167 C4.12370237,7.92027384 4.41881055,7.95835231 4.71548356,7.97618106 C4.93518584,7.9733966 5.14884148,7.9038343 5.32806903,7.77673462 C5.96914686,7.17839532 6.56748616,6.55156367 7.16582546,5.91048584 C7.36242556,5.66683507 7.43120398,5.34410556 7.35102572,5.04146924 C7.20856399,4.38614524 7.05185607,3.71657507 6.90939433,3.06125107 C6.86656991,2.79704657 6.86656991,2.52766983 6.90939433,2.26346533 C6.92311236,2.06919283 7.01577807,1.8890095 7.16582546,1.76484924 C8.18570146,1.12871796 9.2949027,0.648544266 10.4566916,0.340231855 C10.8113303,0.229939584 11.1959804,0.369812352 11.3969391,0.682140028 C11.8100782,1.25198698 12.2517095,1.80758777 12.6506024,2.40592707 C12.9305468,2.84482322 13.4275952,3.09607847 13.9470042,3.06125107 C14.6735591,3.06125107 15.3716216,3.06125107 16.1266688,2.96152785 C16.3981089,2.94663898 16.6440922,2.79691006 16.7819928,2.56263498 C17.0526701,2.17798829 17.2948551,1.77909542 17.5512862,1.39444872 C17.8077174,1.00980203 17.9786714,0.72487855 18.2066102,0.411462725 C18.4104844,0.0603714327 18.8392177,-0.0905909681 19.2180886,0.0553083774 L22.2240313,1.13801759 C22.6161908,1.29422208 22.8430099,1.70607775 22.7653859,2.12100359 C22.7653859,2.67660437 22.5944318,3.23220515 22.4947086,3.78780594 C22.4947086,4.04423707 22.4947086,4.3006682 22.3949853,4.5713455 C22.3534344,4.91703266 22.4806629,5.26160976 22.7368935,5.4973468 C23.264002,5.99596289 23.8053566,6.49457897 24.3182188,7.00744123 C24.6162442,7.32572412 25.0637994,7.45671591 25.4864051,7.34934941 L27.6518235,6.85073332 C28.1430833,6.68908117 28.6737211,6.94808295 28.8485021,7.43482645 C29.2616412,8.28959688 29.660534,9.15861349 30.0451807,10.0276301 C30.1852158,10.2656078 30.2248624,10.5495061 30.1553808,10.8167429 C30.0858992,11.0839797 29.912994,11.3126145 29.6747802,11.4522475 C29.3043797,11.737171 28.9054868,11.9936021 28.5208401,12.2785256 C28.1361934,12.563449 27.9794855,12.6916646 27.7230544,12.9196034 C27.4983888,13.0974216 27.3758111,13.374554 27.3953924,13.6604044 C27.3953924,14.4154517 27.3953924,15.1704989 27.3953924,15.9255461 C27.4120207,16.3419447 27.6440741,16.719706 28.0079779,16.9227783 C28.4068707,17.1649632 28.8342559,17.4071482 29.2331488,17.6635793 C29.4931358,17.8117089 29.7451652,17.9733881 29.988196,18.1479492 C30.3397317,18.3859419 30.4764426,18.837682 30.315858,19.2306584 C29.988196,20.1424136 29.6462879,21.0541687 29.3043797,21.9516776 C29.2455667,22.089319 29.1689319,22.2186403 29.0764409,22.3363243 C28.9108228,22.6358051 28.5726474,22.7962951 28.2359166,22.7352172 L26.2699446,22.4075552 L26.1274829,22.4075552 C25.5935493,22.2911182 25.0400656,22.4903724 24.7028655,22.9204175 C24.332465,23.3620489 23.9050798,23.7609417 23.5204331,24.1740808 C23.142196,24.5434414 22.999601,25.0918837 23.1500326,25.5986982 C23.3067405,26.239776 23.4634484,26.8666076 23.591664,27.5076855 C23.7198795,28.1487633 23.591664,28.4764253 22.9790785,28.7755949 C22.0958157,29.2029801 21.1983067,29.601873 20.2865516,30.0007659 C19.8704029,30.2154244 19.359307,30.0799532 19.1041192,29.6873501 C18.7479648,29.2457187 18.434549,28.7755949 18.106887,28.2627327 C17.3945783,27.2797467 17.2236242,27.1800235 16.0126994,27.2512543 L14.5880821,27.2512543 C14.1283764,27.2596665 13.7066948,27.5083505 13.4768805,27.9065783 C13.191957,28.3767021 12.9070335,28.861072 12.6078639,29.3311957 C12.4476472,29.570014 12.26648,29.7940892 12.0665093,30.0007659 C11.8859147,30.2161464 11.5900273,30.2958084 11.3257082,30.2002123 L8.47647346,29.1317493 C8.3482579,29.1317493 8.23428851,28.9892875 8.10607294,28.9180567 C7.80659217,28.7524385 7.64610214,28.4142631 7.70718007,28.0775324 C7.80690329,27.4222084 7.92087268,26.7811306 8.0205959,26.1400528 C8.03457429,25.9408512 8.03457429,25.740915 8.0205959,25.5417135 C8.06916803,25.2148518 7.94522,24.8861201 7.6929339,24.6726969 L6.15434712,23.2480795 C5.85930872,22.9548299 5.42793387,22.845621 5.02889938,22.963156 L3.03443504,23.4332797 L2.96320417,23.4332797 C2.12267991,23.5757415 1.85200261,23.4332797 1.53858678,22.7067249 C1.22517095,21.98017 0.76929339,20.9829378 0.413139043,20.1139212 C0.292589781,19.9114932 0.260939591,19.6682841 0.325664965,19.4417453 C0.390390339,19.2152065 0.545750993,19.025429 0.755047216,18.9172426 C1.26790948,18.5325959 1.78077174,18.1479492 2.32212634,17.806041 C2.85566495,17.5084017 3.15457901,16.9162134 3.07717356,16.3101928 C3.07717356,15.6263764 3.07717356,14.8855754 2.99169652,14.2729899 C2.98302278,13.9846628 2.83410442,13.7187372 2.59280365,13.5606812 C2.02295669,13.1902807 1.45310974,12.8483725 0.897508955,12.477972 C0.499270261,12.2837396 0.181695626,11.9560833 -3.55271368e-15,11.5519707 L0.0142461739,11.3240319 Z M21.5544611,15.1135142 C21.5544988,13.3945044 20.868713,11.7465169 19.6491845,10.5350116 C18.4296561,9.32350639 16.7771779,8.64861323 15.0582058,8.6599974 C11.5579895,8.77425651 8.76918921,11.6258676 8.73290459,15.1277603 C8.57332552,17.5201177 9.7591166,19.8022905 11.8084372,21.0469287 C13.8577577,22.2915669 16.4296079,22.2915669 18.4789285,21.0469287 C20.5282491,19.8022905 21.7140402,17.5201177 21.5544611,15.1277603 L21.5544611,15.1135142 Z" id="Shape"></path>
                </g>
            </g>
        </g>
    </g>
</svg>