<?xml version="1.0" encoding="UTF-8"?>
<svg width="76px" height="107px" viewBox="0 0 76 107" version="1.1" xmlns="http://www.w3.org/2000/svg" xmlns:xlink="http://www.w3.org/1999/xlink">
    <!-- Generator: Sketch 63.1 (92452) - https://sketch.com -->
    <title>graphPage</title>
    <desc>Created with Sketch.</desc>
    <g id="Page-1" stroke="none" stroke-width="1" fill="none" fill-rule="evenodd">
        <g id="Desktop-HD" transform="translate(-358.000000, -351.000000)" fill-rule="nonzero">
            <g id="innovation_-(1)" transform="translate(119.000000, 209.000000)">
                <g id="graphPage" transform="translate(239.292339, 142.132551)">
                    <path d="M74.664841,0.713834391 C66.4020601,9.8171395 45.2749842,27.2544563 1.90963093,27.881288 L0.712952325,105.138289 C0.712952325,105.138289 42.1693183,111.506329 74.664841,82.6720727 L74.664841,0.713834391 Z" id="Path" fill="#FFFFFF"></path>
                    <path d="M10.6567817,106.406198 C7.29530438,106.437393 3.9354249,106.247031 0.598982934,105.836351 C0.247336256,105.785765 -0.0102265947,105.479143 0.000312025619,105.124043 L1.19732224,27.8670418 C1.2048957,27.4846935 1.51303644,27.1765528 1.89538476,27.1689793 C43.9928286,26.5563938 65.2338738,10.0735706 74.1377325,0.243710653 C74.3322215,0.0210788479 74.6440097,-0.0582854118 74.9212721,0.0442642184 C75.1950925,0.15418183 75.3752459,0.418782036 75.3771681,0.713834391 L75.3771681,82.6720727 C75.3786377,82.8750082 75.2899103,83.0681207 75.1349647,83.1991812 C52.4265635,103.357517 25.0881558,106.406198 10.6567817,106.406198 Z M1.42526102,104.511457 C6.66785301,105.124043 44.2635059,108.500386 73.9525323,82.3444108 L73.9525323,2.565837 C64.2936264,12.5381587 42.9671041,27.8670418 2.60769345,28.622089 L1.42526102,104.511457 Z" id="Shape" fill="#231F20"></path>
                    <path d="M11.4118289,96.0492303 C11.0292953,96.0492303 10.7148214,95.7476413 10.6993519,95.3654137 C10.6911877,94.9747809 10.9932863,94.6475074 11.3833366,94.6246126 C25.4803019,94.359038 39.3370615,90.9264957 51.9279474,84.5810601 C56.6482166,82.2066754 61.0238533,79.2017201 64.9347042,75.648709 L64.9347042,22.7811577 C64.9347042,22.3877605 65.2536157,22.068849 65.6470129,22.068849 C66.0404101,22.068849 66.3593236,22.3877605 66.3593236,22.7811577 L66.3593236,75.9478787 C66.3593236,76.1294082 66.2880138,76.3036653 66.1598752,76.4322486 C65.9746749,76.6174488 48.1099728,94.8098129 11.4403213,96.0492303 L11.4118289,96.0492303 Z" id="Path" fill="#000000"></path>
                    <path d="M15.9563584,46.4867911 C15.5629612,46.4867911 15.2440497,46.1678796 15.2440497,45.7744824 C15.2440497,45.3810852 15.5629612,45.0621737 15.9563584,45.0621737 C16.0560816,45.0621737 26.7692044,44.3213727 32.5246586,40.3609363 C32.6787801,40.2526423 32.8701255,40.2112297 33.0552329,40.246105 C33.2403403,40.2809804 33.4034972,40.3891832 33.5076446,40.5461366 C33.7279806,40.8656529 33.6519628,41.3027555 33.3366905,41.5291226 C27.2535743,45.7174977 16.497713,46.4582987 16.0418354,46.4867911 L15.9563584,46.4867911 Z" id="Path" fill="#000000"></path>
                    <path d="M15.9563584,39.8338279 C15.5714917,39.8265736 15.2590768,39.520407 15.2440497,39.1357654 C15.2362871,38.9457421 15.3063914,38.7607778 15.4381543,38.6236368 C15.5699172,38.4864959 15.7519305,38.409052 15.9421122,38.4092105 C16.0418354,38.4092105 26.0711418,38.0673023 32.4819201,33.6937269 C32.6931413,33.5512162 32.9643463,33.5322161 33.1933748,33.6438837 C33.4224033,33.7555512 33.5744604,33.9809216 33.5922677,34.2350999 C33.610075,34.4892782 33.4909271,34.7336487 33.2797058,34.8761594 C26.5270194,39.4919197 16.3979898,39.8195817 15.9706046,39.8338279 L15.9563584,39.8338279 Z" id="Path" fill="#000000"></path>
                    <path d="M13.3208162,86.7749708 C13.1439134,86.7732066 12.9748982,86.7015032 12.8506925,86.5755244 C12.7129644,86.4462641 12.6348364,86.2657925 12.6348364,86.0769083 C12.6348364,85.8880241 12.7129644,85.7075525 12.8506925,85.5782922 C12.978908,85.4215843 26.6124964,70.6055635 32.3252122,61.3597966 C32.4384453,61.1703092 32.6331311,61.0440265 32.8523206,61.0178884 C33.0686768,61.0018983 33.2814574,61.0797449 33.4364137,61.2315811 L44.4914447,72.6285202 C46.5713861,68.5256221 55.247306,51.1167976 57.0138315,40.8453062 L51.8994551,43.9224798 C51.6805994,44.0548111 51.4077704,44.0603322 51.1837402,43.9369633 C50.9597101,43.8135944 50.8185142,43.5800781 50.8133397,43.3243778 C50.8081653,43.0686775 50.9397983,42.8296402 51.1586541,42.6973088 L57.5551861,38.8508419 C57.7887985,38.7159657 58.0766209,38.7159657 58.3102333,38.8508419 C58.5366738,39.001373 58.6624485,39.2638593 58.6378953,39.5346582 C57.3557397,51.0455667 45.8163388,73.2126133 45.2892304,74.1528608 C45.1863374,74.3565445 44.9886219,74.4954797 44.762122,74.5232613 C44.5381944,74.5536959 44.3126216,74.4802536 44.1495365,74.3238149 L33.051767,62.8129064 C27.0113893,72.2011349 14.0331249,86.3190933 13.8906632,86.4758012 C13.756218,86.657139 13.546426,86.7672798 13.3208162,86.7749708 L13.3208162,86.7749708 Z" id="Path" fill="#000000"></path>
                    <path d="M60.0197742,46.4868477 C59.710927,46.4906692 59.4347724,46.2950597 59.3359579,46.0024212 L57.213278,39.7483508 C57.0945989,39.5005945 57.1289704,39.2066735 57.3016115,38.9929846 C57.4742526,38.7792956 57.7543889,38.6839301 58.0215517,38.7478986 C58.2887144,38.811867 58.4952802,39.0237668 58.5524183,39.2924733 L60.6893444,45.5465436 C60.8132334,45.9199036 60.6174747,46.3240508 60.247713,46.4582987 L60.0197742,46.4868477 Z" id="Path" fill="#000000"></path>
                </g>
            </g>
        </g>
    </g>
</svg>