<?xml version="1.0" encoding="UTF-8"?>
<svg width="67px" height="91px" viewBox="0 0 67 91" version="1.1" xmlns="http://www.w3.org/2000/svg" xmlns:xlink="http://www.w3.org/1999/xlink">
    <!-- Generator: Sketch 63.1 (92452) - https://sketch.com -->
    <title>laptop</title>
    <desc>Created with Sketch.</desc>
    <g id="Page-1" stroke="none" stroke-width="1" fill="none" fill-rule="evenodd">
        <g id="Desktop-HD" transform="translate(-331.000000, -242.000000)" fill-rule="nonzero">
            <g id="innovation_-(1)" transform="translate(119.000000, 209.000000)">
                <g id="laptop" transform="translate(212.471097, 33.545668)">
                    <path d="M20.5963076,34.1094116 C20.1689224,34.1094116 0.651664142,89.3845662 0.651664142,89.3845662 L53.5904463,89.3845662 L64.6739696,31.6020849 L20.5963076,34.1094116 Z" id="Path" fill="#FFFFFF"></path>
                    <path d="M53.5904463,90.0972776 L0.708648838,90.0972776 C0.481317279,90.0958902 0.268704716,89.9842686 0.138801883,89.7977053 C-4.61867153e-05,89.6089807 -0.037537067,89.3639242 0.0390786653,89.1423813 C19.4281213,34.0524269 19.8839989,33.411349 20.5678152,33.411349 L64.6454772,30.9040224 C64.8624146,30.8936552 65.0722297,30.9828266 65.2153242,31.1462074 C65.3540319,31.3126772 65.4161027,31.5299248 65.3862783,31.7445467 L54.302755,89.5127818 C54.2457084,89.8587424 53.9408792,90.1087024 53.5904463,90.0972776 Z M1.72012718,88.6722575 L53.0063532,88.6722575 L63.804953,32.3713783 L21.0664313,34.7932279 C19.5705831,38.240802 8.97142969,68.0865363 1.72012718,88.6722575 Z" id="Shape" fill="#231F20"></path>
                    <path d="M11.2508175,71.7621328 C11.0290908,71.7654432 10.8184313,71.6653799 10.6809706,71.4913718 C10.5368759,71.2997713 10.4944101,71.0502849 10.5670012,70.8218017 L17.0062718,51.5039899 C17.0853137,51.2394105 17.3157282,51.048335 17.5903649,51.01962 L25.796161,50.0223878 C26.033096,49.9878023 26.2708615,50.0796662 26.4229927,50.2645727 C26.581644,50.4488209 26.6353558,50.7012665 26.5654544,50.9341429 L20.5963076,70.6935861 C20.5112407,70.9797898 20.2535667,71.1802029 19.9552298,71.1922022 L11.293556,71.7621328 L11.2508175,71.7621328 Z M18.2171965,52.3730065 L12.2480497,70.2662009 L19.3711366,69.8103233 L24.8844059,51.5752207 L18.2171965,52.3730065 Z" id="Shape" fill="#000000"></path>
                    <path d="M48.1911464,83.9713078 L20.5963076,83.9713078 C20.3710152,83.9757395 20.1578606,83.8691622 20.0264606,83.6860967 C19.8851289,83.5097718 19.8422711,83.2740539 19.9124912,83.059265 L33.4036179,37.8704015 C33.4957948,37.5891276 33.7493868,37.3918894 34.0446957,37.3717854 L59.6878087,35.5197828 C59.9124608,35.5061004 60.129928,35.6015738 60.2719018,35.7762139 C60.4257819,35.9457475 60.4846058,36.1810429 60.4286098,36.4030455 L48.9177013,83.4154194 C48.8370986,83.7489503 48.5341442,83.9806214 48.1911464,83.9713078 Z M21.5508012,82.5464028 L47.6355456,82.5464028 L58.7760536,36.9586463 L34.6287889,38.6966795 L21.5508012,82.5464028 Z" id="Shape" fill="#000000"></path>
                    <polygon id="Path" fill="#FFFFFF" points="53.5904463 89.3845662 54.1602933 55.2792259 65.8136635 0.716379968 64.6739696 31.6020849"></polygon>
                    <path d="M53.5904463,90.0972776 L53.5192154,90.0972776 C53.1516517,90.0533388 52.8755683,89.7404442 52.8781198,89.3703201 L53.4479846,55.2649798 L65.115601,0.559672055 C65.1996519,0.203617286 65.5353289,-0.0344082499 65.8991405,0.00407127329 C66.2699892,0.0484766127 66.5435612,0.371788991 66.5259722,0.744872315 L65.3862783,31.6305773 L54.302755,89.5127818 C54.2457084,89.8587424 53.9408792,90.1087024 53.5904463,90.0972776 Z M64.8021851,8.89368378 L54.8298634,55.4786724 L54.4167244,81.2357548 L63.9474147,31.5166079 L64.8021851,8.89368378 Z" id="Shape" fill="#231F20"></path>
                </g>
            </g>
        </g>
    </g>
</svg>