<?xml version="1.0" encoding="UTF-8"?>
<svg width="91px" height="13px" viewBox="0 0 91 13" version="1.1" xmlns="http://www.w3.org/2000/svg" xmlns:xlink="http://www.w3.org/1999/xlink">
    <!-- Generator: Sketch 63.1 (92452) - https://sketch.com -->
    <title>nameLogo</title>
    <desc>Created with Sketch.</desc>
    <g id="Page-1" stroke="none" stroke-width="1" fill="none" fill-rule="evenodd">
        <g id="Desktop-HD" transform="translate(-53.000000, -48.000000)" fill="#FFFFFF" fill-rule="nonzero">
            <g id="nameLogo" transform="translate(53.720000, 48.624000)">
                <path d="M3.664,11.552 C4.73066667,11.552 5.62133333,11.2586667 6.336,10.672 C7.05066667,10.0853333 7.408,9.32266667 7.408,8.384 C7.408,7.81866667 7.288,7.31733333 7.048,6.88 C6.808,6.44266667 6.49066667,6.10666667 6.096,5.872 C5.744,5.63733333 5.33333333,5.41333333 4.864,5.2 C4.74666667,5.14666667 4.544,5.056 4.256,4.928 C3.968,4.8 3.76266667,4.70666667 3.64,4.648 C3.51733333,4.58933333 3.352,4.496 3.144,4.368 C2.936,4.24 2.78666667,4.12266667 2.696,4.016 C2.60533333,3.90933333 2.52266667,3.77333333 2.448,3.608 C2.37333333,3.44266667 2.336,3.264 2.336,3.072 C2.336,2.69866667 2.47733333,2.4 2.76,2.176 C3.04266667,1.952 3.424,1.84 3.904,1.84 C4.66133333,1.84 5.32266667,2.11733333 5.888,2.672 L5.888,2.672 L6.944,1.2 C6.22933333,0.4 5.16266667,3.55271368e-15 3.744,3.55271368e-15 C2.69866667,3.55271368e-15 1.85066667,0.298666667 1.2,0.896 C0.570666667,1.49333333 0.256,2.224 0.256,3.088 C0.256,3.65333333 0.381333333,4.152 0.632,4.584 C0.882666667,5.016 1.19466667,5.352 1.568,5.592 C1.94133333,5.832 2.34933333,6.06133333 2.792,6.28 C3.23466667,6.49866667 3.64266667,6.69066667 4.016,6.856 C4.38933333,7.02133333 4.70133333,7.23466667 4.952,7.496 C5.20266667,7.75733333 5.328,8.05866667 5.328,8.4 C5.328,8.80533333 5.17866667,9.12533333 4.88,9.36 C4.58133333,9.59466667 4.18666667,9.712 3.696,9.712 C3.22666667,9.712 2.75466667,9.6 2.28,9.376 C1.80533333,9.152 1.41866667,8.84266667 1.12,8.448 L1.12,8.448 L0,9.792 C0.256,10.336 0.736,10.768 1.44,11.088 C2.176,11.3973333 2.91733333,11.552 3.664,11.552 Z M10.224,11.376 L11.392,8.512 L16.176,8.512 L17.344,11.376 L19.44,11.376 L14.704,0.144 L12.976,0.144 L8.24,11.376 L10.224,11.376 Z M15.424,6.672 L12.144,6.672 L13.792,2.688 L15.424,6.672 Z M28.128,11.376 L28.128,9.536 L23.088,9.536 L23.088,0.176 L21.12,0.176 L21.12,11.376 L28.128,11.376 Z M36.512,11.376 L36.512,9.536 L31.84,9.536 L31.84,6.64 L35.872,6.64 L35.872,4.8 L31.84,4.8 L31.84,2.016 L36.352,2.016 L36.352,0.176 L29.872,0.176 L29.872,11.376 L36.512,11.376 Z M41.04,11.376 L41.04,6.592 L46.16,6.592 L46.16,11.376 L48.112,11.376 L48.112,0.176 L46.16,0.176 L46.16,4.752 L41.04,4.752 L41.04,0.176 L39.072,0.176 L39.072,11.376 L41.04,11.376 Z M56.576,11.376 L56.576,7.184 L57.952,7.184 L61.04,11.376 L63.424,11.376 L59.92,6.8 C60.4853333,6.608 60.9866667,6.24533333 61.424,5.712 C61.8613333,5.15733333 62.08,4.45333333 62.08,3.6 C62.08,1.296 60.7253333,0.144 58.016,0.144 C57.6,0.144 57.0666667,0.149333333 56.416,0.16 C55.7653333,0.170666667 55.1626667,0.176 54.608,0.176 L54.608,0.176 L54.608,11.376 L56.576,11.376 Z M57.856,5.344 L56.576,5.344 L56.576,2.016 C56.7573333,2.016 56.9546667,2.01333333 57.168,2.008 C57.3813333,2.00266667 57.5466667,1.99733333 57.664,1.992 C57.7813333,1.98666667 57.8666667,1.984 57.92,1.984 C59.3066667,1.984 60,2.528 60,3.616 C60,4.14933333 59.8,4.57066667 59.4,4.88 C59,5.18933333 58.4853333,5.344 57.856,5.344 L57.856,5.344 Z M67.344,11.376 L67.344,0.176 L65.376,0.176 L65.376,11.376 L67.344,11.376 Z M71.232,11.376 L72.4,8.512 L77.184,8.512 L78.352,11.376 L80.448,11.376 L75.712,0.144 L73.984,0.144 L69.248,11.376 L71.232,11.376 Z M76.432,6.672 L73.152,6.672 L74.8,2.688 L76.432,6.672 Z M90.208,11.376 L90.208,9.536 L83.84,9.536 L90.048,1.536 L90.048,0.176 L81.536,0.176 L81.536,2.016 L87.408,2.016 L81.216,10.032 L81.216,11.376 L90.208,11.376 Z" id="SALEHRIAZ"></path>
            </g>
        </g>
    </g>
</svg>