<?xml version="1.0" encoding="UTF-8"?>
<svg width="176px" height="350px" viewBox="0 0 176 350" version="1.1" xmlns="http://www.w3.org/2000/svg" xmlns:xlink="http://www.w3.org/1999/xlink">
    <!-- Generator: Sketch 63.1 (92452) - https://sketch.com -->
    <title>person</title>
    <desc>Created with Sketch.</desc>
    <g id="Page-1" stroke="none" stroke-width="1" fill="none" fill-rule="evenodd">
        <g id="Desktop-HD" transform="translate(-191.000000, -209.000000)" fill-rule="nonzero">
            <g id="innovation_-(1)" transform="translate(119.000000, 209.000000)">
                <g id="person" transform="translate(72.056960, 0.726925)">
                    <path d="M121.833466,98.9962926 C121.833466,98.9962926 127.959321,93.8534238 130.79431,91.5170513 C133.629298,89.1806788 136.364564,82.7699005 138.928875,82.7982982 C141.493186,82.8268852 136.905918,90.4485883 136.905918,90.4485883 C136.905918,90.4485883 146.436609,83.1403011 149.399813,82.9266085 C152.363017,82.7129158 154.029819,87.7133229 153.289018,89.2661558 C152.548217,90.8189888 144.470637,94.608471 141.47894,97.6001676 C138.487244,100.591864 128.657384,107.287566 128.657384,107.287566" id="Path" fill="#FFFFFF"></path>
                    <path d="M128.714368,107.928644 C128.39625,107.934261 128.112984,107.728226 128.020345,107.423843 C127.927707,107.11946 128.048165,106.790552 128.315475,106.617996 C128.415199,106.617996 138.074105,99.9365401 140.980324,97.0160744 C143.136474,95.1601576 145.47532,93.5277385 147.960949,92.143883 C149.653327,91.2635165 151.224071,90.1668686 152.633694,88.8815091 C152.853462,87.4849322 152.504556,86.0585235 151.664954,84.9210728 C151.254071,84.0698844 150.401676,83.5199522 149.456797,83.4964554 C147.433841,83.6389172 141.10854,87.9840002 137.34755,90.8617273 C137.083439,91.0817121 136.699905,91.0817121 136.435795,90.8617273 C136.178161,90.6347946 136.123792,90.2542112 136.307579,89.9642184 C138.031366,87.1149836 139.299275,83.9665792 138.957367,83.3967322 C137.760689,83.3967322 136.108133,85.6903662 134.683515,87.6705844 C133.698132,89.2317843 132.526044,90.6669947 131.193203,91.9444365 C128.343968,94.280809 122.246605,99.4236778 122.246605,99.4236778 L121.320604,98.3409686 C121.320604,98.3409686 127.460705,93.1838537 130.281447,90.8474811 C131.513315,89.6556107 132.598914,88.321328 133.515329,86.8727986 C135.281854,84.3512258 136.962903,81.9721148 138.857644,81.9721148 L138.857644,81.9721148 C139.383815,81.9544002 139.876863,82.2283159 140.1398,82.6844235 C140.709647,83.7386404 139.940353,85.8898126 139.014352,87.8130461 C142.134264,85.5763968 147.106179,82.2427921 149.285843,82.1145765 C150.723896,82.0865786 152.062477,82.8460187 152.776156,84.0947947 C153.914954,85.6362353 154.311506,87.603341 153.858865,89.4656023 C153.417234,90.3773574 151.679201,91.4743128 148.644766,93.3263154 C146.282593,94.6711865 144.05891,96.2458972 142.006049,98.0275528 C139.000106,101.033495 129.540646,107.529751 129.184492,107.800428 C129.04945,107.900697 128.881618,107.94647 128.714368,107.928644 Z" id="Path" fill="#231F20"></path>
                    <path d="M125.751164,58.0385427 C128.745158,55.9365951 131.966038,54.1780138 135.353085,52.7959507 C139.242291,51.513795 144.171467,50.6447784 143.060265,48.9922223 C141.949064,47.3396661 132.717543,49.7330233 132.717543,49.7330233 C132.717543,49.7330233 138.102597,41.4844886 141.122786,39.8461786 C144.142975,38.2078686 148.473811,38.3360842 146.336885,36.7690051 C144.199959,35.2019259 137.789181,34.959741 135.495547,36.1136811 C133.201913,37.2676212 120.29488,51.4568103 119.639556,52.2118576 C118.984232,52.9669048 125.751164,58.0385427 125.751164,58.0385427 Z" id="Path" fill="#FFFFFF"></path>
                    <path d="M125.751164,58.7508676 C125.596873,58.7519022 125.446581,58.7018049 125.323779,58.6083896 C122.474544,56.4714636 119.012724,53.6507211 118.884508,52.4540425 C118.851269,52.1970268 118.928974,51.9380098 119.098201,51.7417338 C119.226416,51.5992721 132.674805,36.7547589 135.167885,35.4868494 C137.660965,34.2189399 144.328175,34.4183864 146.764271,36.1991581 C147.034948,36.3986046 147.747257,36.925713 147.604795,37.6237755 C147.462333,38.321838 146.436609,38.7634694 144.898022,39.1766085 C143.704324,39.4535327 142.547228,39.8695137 141.450448,40.4160256 C139.527214,41.4559963 136.26484,45.7868331 134.327361,48.5363447 C137.646719,47.7955437 142.590142,46.9835117 143.630112,48.5363447 C143.913076,48.9172073 143.987855,49.4139499 143.829559,49.8612389 C143.402174,51.0579175 141.47894,51.670503 138.131089,52.7104736 C137.276319,52.9526586 136.393056,53.2090897 135.552532,53.479767 C132.240049,54.8515364 129.087215,56.580818 126.150057,58.636882 C126.030661,58.7120868 125.892269,58.7516273 125.751164,58.7508676 Z M120.394603,52.4397963 C122.02417,54.1953344 123.828522,55.7801096 125.779656,57.1695261 C128.691661,55.1326888 131.82723,53.4358487 135.125147,52.1121343 C135.979917,51.841457 136.877426,51.5707797 137.760689,51.3285948 C139.455983,50.8299787 142.305218,50.0037006 142.504665,49.4338537 C141.949064,48.7500373 137.475765,49.2344072 132.902743,50.4168397 C132.619351,50.4903577 132.319835,50.3829841 132.147696,50.1461623 C131.982319,49.9007453 131.982319,49.5795475 132.147696,49.3341304 C132.375635,48.9922223 137.660965,40.9146417 140.80937,39.219347 C142.000238,38.6039701 143.25723,38.1260265 144.556114,37.7947296 C145.040484,37.666514 145.667315,37.4955599 145.980731,37.3530982 L145.9095,37.2818673 C143.943528,35.8572499 137.789181,35.6720497 135.808963,36.683528 C133.828745,37.6950064 122.346329,50.2458856 120.394603,52.4397963 Z" id="Shape" fill="#231F20"></path>
                    <path d="M59.6774096,69.8343747 C59.6774096,69.8343747 93.3981032,74.6353353 98.4982335,73.3531796 L118.442877,50.9866866 L130.138986,58.6083896 C130.138986,58.6083896 123.984639,76.9859539 115.550904,87.5993535 C107.117169,98.212753 51.9417372,100.506387 51.9417372,100.506387 L59.6774096,69.8343747 Z" id="Path" fill="#424242"></path>
                    <path d="M132.760282,264.636556 C132.760282,264.636556 128.871076,273.041799 129.754339,276.38965 C130.637602,279.737501 145.695808,301.961532 147.875472,299.454205 C150.055137,296.946879 146.764271,275.23571 146.764271,275.23571 L132.760282,264.636556 Z" id="Path" fill="#231F20"></path>
                    <path d="M147.419595,300.36596 L147.020702,300.36596 C142.846573,299.382974 129.782831,279.324362 129.070523,276.617589 C128.158767,273.11303 131.706065,265.220649 132.119204,264.380125 C132.210649,264.18817 132.383065,264.047102 132.589328,263.995479 C132.795704,263.939862 133.016186,263.981859 133.187667,264.109448 L147.191656,274.651617 C147.340763,274.75986 147.438675,274.924765 147.462333,275.107494 C148.017934,278.797253 150.681968,297.345772 148.402581,299.967068 C148.150091,300.238943 147.790141,300.38501 147.419595,300.36596 L147.419595,300.36596 Z M133.045205,265.676527 C131.862773,268.411792 129.839816,273.868077 130.438155,276.161711 C131.435387,279.936947 145.011991,298.884358 147.391102,298.884358 L147.391102,298.884358 C148.644766,297.459741 147.391102,284.410246 146.080454,275.506387 L133.045205,265.676527 Z" id="Shape" fill="#231F20"></path>
                    <polygon id="Path" fill="#FFFFFF" points="140.695401 247.184993 132.760282 264.636556 146.764271 275.178725 157.263701 254.763958"></polygon>
                    <path d="M146.764271,275.891034 C146.610785,275.887258 146.461939,275.837643 146.336885,275.748572 L132.332896,265.206403 C132.065464,265.004051 131.971273,264.64495 132.104958,264.337387 L140.040077,246.885824 C140.125787,246.714396 140.273483,246.58198 140.453216,246.515423 C140.626635,246.444179 140.821151,246.444179 140.99457,246.515423 L157.56287,254.094388 C157.741528,254.174629 157.880225,254.3236 157.947517,254.507527 C158.018133,254.685996 158.018133,254.884659 157.947517,255.063128 L147.448087,275.477895 C147.35548,275.671981 147.175287,275.809775 146.963717,275.848295 L146.764271,275.891034 Z M133.643544,264.408618 L146.465101,274.096016 L156.252222,255.09162 L141.008816,248.125241 L133.643544,264.408618 Z" id="Shape" fill="#231F20"></path>
                    <path d="M99.1250651,148.615716 C99.1250651,148.615716 157.691086,163.474476 169.187748,172.834212 C180.684411,182.193948 171.851783,249.50712 157.919025,261.901291 L136.008409,250.376136 C136.008409,250.376136 147.690272,198.804987 143.402174,194.559627 C139.114075,190.314267 90.7910534,184.088689 90.7910534,184.088689 L59.1930397,148.743932 L99.1250651,148.615716 Z" id="Path" fill="#333333"></path>
                    <path d="M157.919025,262.613612 C157.804202,262.613612 157.691209,262.584829 157.591363,262.528123 L135.680747,251.002968 C135.394314,250.855586 135.242441,250.534316 135.310347,250.219428 C139.797892,230.431493 145.824023,197.950216 142.903557,195.058243 C139.512968,191.710392 104.068487,186.510539 90.7055764,184.786752 C90.5345752,184.770242 90.3764623,184.688635 90.263945,184.558813 L58.6659313,149.214056 C58.4766218,149.010375 58.4262538,148.713763 58.5377157,148.459008 C58.6542558,148.201057 58.909996,148.034269 59.1930397,148.031623 L99.0823266,147.903408 L99.2675269,147.903408 C101.660884,148.515993 158.118471,162.918875 169.615134,172.264365 C173.888986,175.726185 174.971695,185.755492 175.142649,193.562395 C175.669757,217.524459 168.304486,253.567279 158.360656,262.414153 C158.244336,262.53462 158.086311,262.605986 157.919025,262.613612 Z M136.820441,250.005736 L157.805055,261.060767 C167.293007,251.900477 174.259386,216.983105 173.746524,193.633626 C173.518585,183.020226 171.737813,175.825908 168.746117,173.389813 C157.705332,164.400477 101.603899,149.997595 99.0395881,149.328025 L60.774365,149.470487 L91.1472077,183.433365 C97.2160778,184.216905 139.584199,189.844143 143.858051,194.075257 C145.111714,195.314674 146.294147,199.773727 141.96331,224.191669 C139.926107,235.944762 137.390288,247.427178 136.820441,250.005736 Z" id="Shape" fill="#231F20"></path>
                    <polygon id="Path" fill="#FFFFFF" points="93.4693341 293.328351 91.6315777 309.412281 107.159907 316.848784 110.692958 294.653245"></polygon>
                    <path d="M107.159907,317.561092 C107.056359,317.580742 106.950039,317.580742 106.846491,317.561092 L91.3181618,310.12459 C91.0465475,309.989438 90.887502,309.699748 90.919269,309.398035 L92.7570254,293.314104 C92.7711231,293.12699 92.8614924,292.953891 93.0069608,292.835361 C93.1524292,292.716831 93.3402138,292.663287 93.5263188,292.687273 L110.749943,294.012167 C110.947502,294.025935 111.12939,294.124674 111.248559,294.282844 C111.378877,294.436325 111.431407,294.641194 111.391021,294.838445 L107.815231,316.962753 C107.78302,317.183976 107.644708,317.375485 107.444831,317.475615 C107.357664,317.525572 107.260178,317.554817 107.159907,317.561092 Z M92.3866249,309.013388 L106.632799,315.823059 L109.895173,295.322815 L94.1246581,294.11189 L92.3866249,309.013388 Z" id="Shape" fill="#231F20"></path>
                    <path d="M41.8269538,163.673922 C41.8269538,163.673922 95.0079209,202.594469 95.7202296,220.786833 C96.4325383,238.979197 89.4091745,296.462509 89.4091745,296.462509 L116.134997,302.859041 C116.134997,302.859041 135.438562,226.471057 128.956553,206.996537 C122.474544,187.522017 85.021353,146.891929 85.021353,146.891929 L41.8269538,163.673922 Z" id="Path" fill="#333333"></path>
                    <path d="M116.134997,303.57135 L115.964043,303.57135 L89.2952051,297.146325 C88.9431279,297.06823 88.7084938,296.734803 88.7538505,296.377032 C88.7538505,295.807185 95.7629681,238.722766 95.0506594,220.801079 C94.366843,203.164316 41.9694155,164.628416 41.4423071,164.243769 C41.2389542,164.084085 41.1314506,163.831451 41.1573836,163.574199 C41.1987557,163.317386 41.3717933,163.101089 41.6132611,163.004352 L84.7934142,146.236605 C85.0645346,146.122907 85.3778323,146.191262 85.5769538,146.407559 C87.1012944,148.074362 123.115622,187.379555 129.611877,206.768598 C136.108133,226.157641 117.659337,299.910083 116.790321,303.029995 C116.71528,303.33529 116.448968,303.555286 116.134997,303.57135 Z M90.1927141,295.921154 L115.607888,302.00427 C117.502629,294.382567 134.298868,225.317116 128.229998,207.224476 C122.161128,189.131835 88.5116656,151.778367 84.8076604,147.732453 L43.2800635,163.859122 C50.944505,169.557592 95.7629681,203.63444 96.4325383,220.758341 C97.1021084,237.882242 90.9477613,289.595853 90.1927141,295.921154 Z" id="Shape" fill="#231F20"></path>
                    <path d="M41.3710762,51.5565336 C39.2828954,51.2934993 37.2915756,50.5204563 35.5728834,49.3056381 C32.3390019,46.9407732 30.6721996,43.0230754 29.233336,39.3333164 C28.101161,36.8291041 27.4626656,34.1300099 27.3528411,31.3839513 C27.4525643,26.5402522 30.6721996,22.3661233 33.9773119,18.8330722 C36.4561462,16.1832838 39.2768886,12.8069406 38.0944562,9.37361269 C37.7392927,8.66209029 37.4851595,7.90448574 37.339409,7.12271722 C37.2539319,5.17099139 39.8752279,4.03129748 41.6987382,4.77209853 C43.4375149,5.7248311 44.8105561,7.22816084 45.6021898,9.04595069 C46.8830547,7.7046285 47.4165512,5.81605073 47.0268072,4.00280514 C46.8700993,3.27625027 46.5709297,2.4927107 46.9413302,1.86587905 C47.2644481,1.43746899 47.7378296,1.14733191 48.2662244,1.05384714 C53.444403,-0.0932708023 58.6052762,3.04977009 59.9623331,8.17693408 C60.9197153,6.5480018 61.1274285,4.58511218 60.5321801,2.79188036 C69.4200017,5.86644206 74.8233923,14.872093 73.3537366,24.1611412 C72.9055087,27.4767392 72.0390935,30.722206 70.7751791,33.8200471 C70.1568041,34.8640811 69.32113,35.7629167 68.3248372,36.4555892 C61.6861202,41.9973509 58.6944236,48.9922223 49.7193341,51.0294251 C46.9897339,51.6979878 44.1630897,51.8764619 41.3710762,51.5565336 Z" id="Path" fill="#000000"></path>
                    <path d="M43.9496337,52.4398528 C43.0540812,52.4419077 42.1593692,52.3847984 41.271353,52.2688423 C39.0665586,51.9927296 36.9657153,51.1700218 35.1597444,49.875485 C31.8118935,47.4251431 30.0738603,43.4219683 28.578012,39.5327628 C27.3880664,36.9488459 26.7199684,34.1554214 26.61204,31.3127205 C26.7260094,26.1556055 30.1165988,21.8390148 33.4359573,18.2917175 C36.0714995,15.4424828 38.3936258,12.4365401 37.3963937,9.55881295 C37.3109166,9.33087417 37.2254396,9.11718156 37.1257164,8.90348895 C36.8385269,8.33862673 36.6597383,7.72494682 36.5986079,7.09422487 C36.5734968,6.07355731 37.0806565,5.11319104 37.9377483,4.55840592 C39.1043877,3.74768236 40.5928992,3.5563023 41.926677,4.04554366 C43.5280389,4.82690111 44.8327458,6.10661362 45.6449284,7.69256417 C46.3031101,6.60864519 46.522249,5.31419682 46.2575138,4.07403601 L46.1720368,3.76062018 C45.875576,2.9999203 45.9012901,2.15135475 46.2432677,1.41000149 C46.6605546,0.81647156 47.2955241,0.411934553 48.0097932,0.284553752 C50.6784303,-0.360713571 53.4946213,0.101799552 55.8166965,1.5667094 C57.5964712,2.62579927 59.0238069,4.18694768 59.9195946,6.05425418 C60.1663026,5.01678477 60.1169445,3.93090534 59.7771328,2.92009592 C59.6910722,2.6621733 59.759352,2.37775548 59.9531234,2.18701177 C60.1468948,1.99626806 60.4323525,1.93247546 60.688888,2.02258697 C66.1791219,3.9799162 70.5670386,8.19667303 72.7411511,13.6047263 C74.0694132,16.9503082 74.4729162,20.5916767 73.9093373,24.146895 C73.5118825,27.5646137 72.6738997,30.916545 71.4162569,34.1192167 C70.7980919,35.195502 69.9579541,36.1279093 68.9516688,36.8544821 L68.7807147,36.9969439 C66.815876,38.7078261 64.9691464,40.5497961 63.2531993,42.5102131 C59.6204249,46.4991418 56.1301123,50.2743779 49.876042,51.7132415 C47.932764,52.1696161 45.945605,52.4132341 43.9496337,52.4398528 L43.9496337,52.4398528 Z M40.4878134,5.19948374 C39.8844137,5.19890315 39.2944119,5.37739111 38.7925187,5.712346 C38.3318495,5.9949693 38.0512644,6.49678493 38.0517177,7.03724017 C38.110087,7.49076077 38.2500558,7.9299732 38.4648567,8.333642 C38.5645799,8.59007313 38.6785493,8.83225808 38.7640264,9.08868921 C40.1886438,13.1773411 36.4846385,17.1377775 34.4901742,19.2604574 C31.3560159,22.6083082 28.1506268,26.6684678 28.0509036,31.3412128 C28.157609,33.9960282 28.7818842,36.6044341 29.88866,39.0199005 C31.3132774,42.8663675 32.9515874,46.513388 35.9860225,48.7357911 C37.6056789,49.8853354 39.4854308,50.6147183 41.4565532,50.858471 L41.4565532,50.858471 C44.1683428,51.1695376 46.9139579,50.9910002 49.5626262,50.3313626 C55.446296,48.9922223 58.7371622,45.3879403 62.2132286,41.5557195 C63.9804751,39.5284361 65.8844148,37.6244965 67.9116981,35.8572499 L68.0826522,35.7147882 C68.9250573,35.1130419 69.6373416,34.3474574 70.1768398,33.4638927 C71.3420184,30.378735 72.1312451,27.16443 72.5274585,23.8904639 C73.046931,20.5852447 72.6731165,17.2012401 71.4447493,14.0890962 C69.5897063,9.49089443 66.011043,5.79975892 61.4724275,3.8033587 C61.6797112,5.40263424 61.3381777,7.0249181 60.5036877,8.40487287 C60.35117,8.648021 60.0676176,8.77587499 59.7844154,8.72919331 C59.5012131,8.68251163 59.2736965,8.47041548 59.2072859,8.19118026 C57.9361631,3.46499494 53.1744233,0.572818322 48.3944399,1.6236941 C48.0477699,1.66512939 47.7283856,1.83242594 47.496931,2.09381784 C47.3259769,2.37874131 47.496931,2.84886505 47.582408,3.36172731 L47.667885,3.70363548 C48.1310585,5.74318489 47.5489133,7.87949757 46.1150521,9.40210504 C45.967412,9.57410989 45.7399125,9.65535968 45.5167128,9.61579765 C45.2915515,9.59618657 45.0898189,9.46877649 44.9753582,9.27388947 C44.2644377,7.60075938 43.0162622,6.21222677 41.4280609,5.32769931 C41.1253513,5.22683661 40.8064766,5.18335369 40.4878134,5.19948374 L40.4878134,5.19948374 Z" id="Shape" stroke="#000000" stroke-width="0.5" fill="#FFFFFF"></path>
                    <path d="M71.9576115,37.3246059 C71.9576115,37.3246059 76.9295262,46.4848957 75.5903859,48.1801904 C74.2512455,49.875485 70.4190247,48.3368983 70.4190247,48.3368983" id="Path" fill="#FFFFFF"></path>
                    <path d="M73.4819521,49.6902848 C72.3403632,49.6500853 71.2135712,49.4189484 70.1483474,49.0064684 C69.7877989,48.855601 69.6161567,48.4423884 69.7637007,48.0804671 C69.8304636,47.9056807 69.9645985,47.7650119 70.1360144,47.6900174 C70.3074303,47.615023 70.5017769,47.6119811 70.6754559,47.6815743 C71.5444725,48.0234824 74.208507,48.7785297 75.0347851,47.6815743 C75.5903859,46.9692656 73.8665988,42.2680282 71.3307799,37.6095293 C71.2355975,37.4442382 71.2121964,37.2471979 71.2660161,37.0642107 C71.3198359,36.8812236 71.4461886,36.7282286 71.6157033,36.6407895 C71.9626354,36.4591864 72.3910752,36.5851981 72.5844432,36.925713 C74.1372761,39.7749478 77.6275887,46.6985883 76.1459866,48.564837 C75.4831831,49.336425 74.4971998,49.7529634 73.4819521,49.6902848 Z" id="Path" fill="#231F20"></path>
                    <path d="M71.7154266,25.7709588 C75.1060159,29.061825 73.5104445,35.2589106 73.140044,39.3475625 C72.5986893,45.1030168 71.9243704,50.8394761 71.1170873,56.5569406 C70.604225,60.1897149 61.1447655,59.4061754 59.5776864,58.2237429 L59.37824,70.3614831 C59.37824,70.3614831 56.5290052,76.829246 49.2634565,72.6551171 C41.9979078,68.4809881 40.616029,63.3808579 40.616029,63.3808579 L42.6817242,46.7983115 C42.6817242,46.7983115 48.9073022,47.3824046 53.238139,40.2593177 C57.5689759,33.1362307 58.4095002,21.7392916 58.4095002,21.7392916 C58.4095002,21.7392916 68.4103142,22.5513235 71.7154266,25.7709588 Z" id="Path" fill="#FFFFFF"></path>
                    <path d="M53.8649707,74.777797 C52.1189511,74.7092727 50.4205722,74.1889601 48.9357945,73.2677026 C41.4565532,68.9938504 39.9891973,63.8367355 39.9322126,63.6230428 C39.9110183,63.5340617 39.9110183,63.4413466 39.9322126,63.3523655 L41.9979078,46.755573 C42.056192,46.3824943 42.3905451,46.1162502 42.7672012,46.1429875 C43.0093862,46.1429875 48.6366249,46.5703727 52.739523,39.9459018 C56.9278981,33.0649999 57.7826685,21.8247687 57.7969147,21.7107993 C57.8114376,21.52165 57.9008123,21.3461079 58.0452247,21.2230899 C58.1896371,21.1000719 58.3771556,21.0397421 58.5662081,21.0554753 C58.9793471,21.0554753 68.8519456,21.8959995 72.3137659,25.3293274 L72.3137659,25.3293274 C75.3909394,28.3067778 74.7213693,33.2786925 74.1942608,37.2818673 C74.0945376,38.0511607 73.9948144,38.8062079 73.9235835,39.4900243 C73.3964751,45.1884938 72.7126587,51.0294251 71.914873,56.7278947 C71.6741653,57.9637186 70.7604504,58.9599981 69.5500081,59.3064522 C66.5599307,60.2238177 63.3678517,60.2535115 60.361226,59.3919292 L60.2187642,70.4469601 C60.2320223,70.5366989 60.2320223,70.6278987 60.2187642,70.7176374 C59.3879843,72.4740477 57.9062981,73.8382209 56.0873738,74.5213659 C55.3660359,74.730077 54.6148851,74.8167483 53.8649707,74.777797 Z M41.3425838,63.3808579 C41.6132611,64.1501513 43.322802,68.4382496 49.6481032,72.0425316 C51.343837,73.213024 53.4594018,73.6019145 55.4605422,73.1109947 C56.8514947,72.5900627 58.0024363,71.5760173 58.6944236,70.2617599 L58.8511315,58.2807276 C58.8618648,58.0113106 59.0209147,57.7699936 59.2642706,57.653896 C59.490838,57.5120633 59.7785042,57.5120633 60.0050716,57.653896 C60.8598421,58.3377123 66.0739417,59.0785134 68.9231765,57.9103271 C69.8206854,57.5541728 70.3477939,57.0555567 70.3477939,56.4857097 C71.1455796,50.7872402 71.7724113,45.0887706 72.3565044,39.304824 C72.3565044,38.6067615 72.5274585,37.8802066 72.6271817,37.0539285 C73.1115516,33.3641695 73.7241371,28.7911477 71.2025643,26.2980673 C68.6809915,23.8049868 61.3299658,22.8220008 59.0363318,22.5655697 C58.7799007,25.2296042 57.6117144,34.4896172 53.8364783,40.7151952 C50.0612423,46.9407732 45.1178199,47.5391125 43.2943097,47.5960972 L41.3425838,63.3808579 Z" id="Shape" fill="#231F20"></path>
                    <path d="M60.6034109,40.0598712 C60.5634816,38.6044535 60.1195549,37.1888206 59.3212553,35.9712193 C58.8488414,34.9347728 58.2246561,33.9744878 57.4692527,33.1219846 C56.6912301,32.2914316 55.5853586,31.8480398 54.4490638,31.9110598 C53.4492586,32.0682607 52.5662313,32.6500198 52.0272143,33.5066313 C51.489781,34.368273 51.1627925,35.3443582 51.0727206,36.355866 C50.5060354,40.7293353 52.3141498,45.0731537 55.8166965,47.7528051 L55.531773,47.3824046" id="Path" fill="#FFFFFF"></path>
                    <path d="M55.8166965,48.5078524 C55.6665487,48.5102177 55.520335,48.4597992 55.4035575,48.3653906 C51.6902354,45.5118453 49.7703393,40.9019254 50.3604119,36.2561428 C50.4861222,35.1577903 50.8560675,34.1014991 51.4431211,33.1647231 C52.0847014,32.1585181 53.1177479,31.466377 54.2923559,31.2557358 C55.649436,31.1477364 56.9801309,31.6737027 57.8966379,32.6803532 C58.7080204,33.558131 59.3762617,34.5580893 59.8768561,35.6435573 C60.7417957,36.9767321 61.211067,38.5277972 61.2302426,40.1168559 C61.1861217,40.4978032 60.8585608,40.7821013 60.4751954,40.7721799 C60.2872715,40.7613094 60.1117027,40.6750043 59.9883178,40.5328434 C59.8649329,40.3906826 59.8041909,40.2047165 59.8198714,40.0171327 C59.7726095,38.6953063 59.3582436,37.4127452 58.6231928,36.3131275 C58.1787468,35.3570536 57.5928302,34.4733761 56.8851596,33.6918315 C56.2754776,33.0014331 55.382924,32.6286607 54.46331,32.6803532 C53.6751104,32.8205665 52.9822641,33.285911 52.5543227,33.9625088 C52.0849935,34.7184216 51.7927749,35.5707257 51.6995523,36.4555892 C51.1977176,40.4896917 52.8136095,44.4971037 55.9734044,47.0547426 L56.0446353,47.0547426 L56.3438049,47.4251431 C56.5143728,47.6409267 56.5454607,47.9356326 56.4236713,48.1822563 C56.3018818,48.42888 56.0489812,48.5833447 55.773958,48.5791692 L55.8166965,48.5078524 Z" id="Path" fill="#231F20"></path>
                    <path d="M59.5634402,58.2237429 C59.5634402,58.2237429 54.8052182,56.2720171 52.8107538,52.7247198 C52.8107538,52.7247198 52.3833686,61.5146091 59.6774096,64.6915059 L59.5634402,58.2237429 Z" id="Path" fill="#231F20"></path>
                    <path d="M59.6774096,65.4038146 C59.5787242,65.4241605 59.4769254,65.4241605 59.37824,65.4038146 C51.7280446,62.0702099 52.0984451,52.8386892 52.0984451,52.738966 C52.1162399,52.420849 52.343126,52.1532398 52.6540459,52.083642 C52.9617352,52.0156376 53.2781855,52.153725 53.4375855,52.4255502 C55.2753419,55.7164163 59.791379,57.5969113 59.8341175,57.6111575 C60.1001118,57.7204282 60.2743135,57.9789211 60.2757489,58.2664815 L60.3897183,64.7484906 C60.3893149,64.9906699 60.2658907,65.2160532 60.0620563,65.3468299 C59.9428324,65.4051889 59.8084327,65.4251 59.6774096,65.4038146 L59.6774096,65.4038146 Z M53.6797704,55.0468462 C54.0191573,58.55833 55.9655829,61.7146958 58.9508548,63.5945505 L58.8796239,58.7508514 C56.938781,57.8370771 55.1776028,56.5825391 53.6797704,55.0468462 Z" id="Shape" fill="#231F20"></path>
                    <path d="M34.390451,59.1070057 C34.390451,59.1070057 55.4605422,60.0899917 63.9227695,71.4157 C72.3849967,82.7414082 79.1946679,126.064023 83.3403045,128.913258 C87.4859411,131.762493 99.2675269,147.803684 99.1250651,148.615716 C98.9826034,149.427748 38.7925187,168.56036 38.7925187,168.56036 C38.7925187,168.56036 35.2594676,154.67034 28.6207506,136.677423 C21.9820335,118.684505 16.8391648,60.3321767 34.390451,59.1070057 Z" id="Path" fill="#424242"></path>
                    <path d="M89.0102817,135.352528 C88.7944919,135.347554 88.5916034,135.248711 88.4546809,135.081851 C81.6038825,125.964119 76.9173326,115.407202 74.7498616,104.210392 C71.6441957,86.7160907 65.8317568,76.088445 65.7747721,75.9887218 C65.5826403,75.64639 65.7036955,75.2131398 66.0454494,75.019982 C66.2115997,74.9288364 66.4072213,74.9076569 66.5890292,74.9611298 C66.7708371,75.0146027 66.9238422,75.1383195 67.0141892,75.3049054 C67.0141892,75.4046286 72.9975822,86.2174746 76.1459866,103.953961 C78.2729248,114.916791 82.8616006,125.25349 89.5658824,134.184342 C89.8116567,134.487878 89.7671729,134.932717 89.4661592,135.181574 C89.3383841,135.289294 89.1773798,135.34967 89.0102817,135.352528 L89.0102817,135.352528 Z" id="Path" fill="#231F20"></path>
                    <path d="M51.5713367,76.7295228 C52.0557066,77.3278621 75.8753093,115.322408 75.8753093,115.322408 L123.243838,92.5285297 L134.811731,105.862948 C134.811731,105.862948 94.8939515,136.036345 79.3228834,141.150721 C63.7518154,146.265098 28.0366574,90.6480347 28.4355503,84.5364261 C28.8344432,78.4248175 44.7331732,68.2530494 51.5713367,76.7295228 Z" id="Path" fill="#424242"></path>
                    <path d="M75.8753093,116.091721 C75.6287433,116.093504 75.3980905,115.970131 75.2627239,115.764039 C75.2627239,115.764039 54.0074324,81.9008839 53.6797704,81.416514 C53.4921039,81.0875262 53.594709,80.6692062 53.9133055,80.4643941 C54.2319021,80.2595821 54.6550654,80.3399081 54.876449,80.6472206 C55.1471263,81.0603597 73.3252442,109.994339 76.0747558,114.38216 L101.176514,101.261434 C101.522961,101.083414 101.948154,101.216683 102.131008,101.560604 C102.221069,101.728494 102.24012,101.925466 102.183902,102.107504 C102.127685,102.289542 102.000885,102.441472 101.831838,102.529344 L76.1887252,115.94924 C76.0977853,116.022148 75.9900365,116.071125 75.8753093,116.091721 Z" id="Path" fill="#231F20"></path>
                    <path d="M78.2686666,141.179301 C68.2963448,141.179301 57.5832221,132.759725 46.27176,116.077455 C46.163466,115.923334 46.1220534,115.731988 46.1569287,115.546881 C46.191804,115.361773 46.3000069,115.198616 46.4569603,115.094469 C46.7845961,114.875577 47.2269954,114.957737 47.4541924,115.279669 C59.791379,133.48628 71.2880413,141.606599 81.6450098,139.412688 C92.0019782,137.218777 112.701669,120.892662 112.901115,120.778692 C113.047235,120.658468 113.235902,120.602713 113.4239,120.624198 C113.611899,120.645684 113.783121,120.742569 113.898347,120.892662 C114.018572,121.038782 114.074327,121.227449 114.052841,121.415447 C114.031356,121.603445 113.934471,121.774667 113.784378,121.889894 C112.929608,122.57371 92.7000407,138.515179 81.9299332,140.794567 C80.7269144,141.054198 79.4993765,141.183161 78.2686666,141.179301 Z" id="Path" fill="#231F20"></path>
                    <path d="M60.1047948,68.5379728 L58.9793471,71.9285622 L61.757351,75.5470904 C61.757351,75.5470904 56.2298356,103.754515 14.2178688,81.2455599 L0.712495924,86.1747361 L8.73309182,97.1015515 C8.73309182,97.1015515 59.2785168,116.547579 63.2104608,75.9317371 L63.9227695,71.4014538 L60.1047948,68.5379728 Z" id="Path" fill="#231F20"></path>
                    <path d="M33.5641729,102.415374 C30.3541018,102.398858 27.1495829,102.146497 23.9764979,101.660327 C18.6959387,100.848833 13.5055053,99.5321426 8.47666069,97.7283831 C8.34717026,97.6866221 8.23632104,97.6009659 8.16324487,97.4861982 L0.142648969,86.5593828 C0.00698140463,86.3811803 -0.0349420147,86.148703 0.0299321761,85.9343361 C0.0948063668,85.7199692 0.25859904,85.5497481 0.470310968,85.4766736 L13.98993,80.6187283 C14.1704005,80.5338656 14.3793064,80.5338656 14.5597769,80.6187283 C30.4157685,89.1664326 42.8241859,91.331851 51.4146288,87.2716915 C56.1190174,84.9482358 59.6037038,80.7220165 60.9880576,75.6610598 L58.4237463,72.2989627 C58.2798357,72.1127599 58.2371809,71.8674949 58.3097769,71.6436387 L59.4352247,68.2672955 C59.5077528,68.0525442 59.6763509,67.8839461 59.8911022,67.811418 C60.1105106,67.7413148 60.3503775,67.7839578 60.5321801,67.9253874 L64.3359085,70.7746221 C64.5489001,70.9267461 64.6588958,71.1852362 64.620832,71.4441923 L63.9085233,75.9744756 C62.9255373,86.2174746 58.8653777,93.625485 51.8847525,97.9563219 C46.4142217,101.361157 39.7612585,102.415374 33.5641729,102.415374 Z M9.17472321,96.4747198 C11.5965728,97.3579826 36.2424536,105.991164 51.1297053,96.7738895 C57.7256838,92.6994837 61.5579046,85.6476277 62.5266444,75.8320139 L63.1819684,71.6863773 L60.5036877,69.6919129 L59.8056252,71.7861005 L62.3414441,75.105459 C62.4672376,75.2666819 62.5142759,75.4757409 62.4696597,75.675306 C61.116929,81.3209249 57.2986673,86.0597538 52.0699528,88.5823395 C43.0948632,92.8561917 30.3587838,90.6337885 14.1893764,82.0575919 L1.86643601,86.4881519 L9.17472321,96.4747198 Z" id="Shape" fill="#231F20"></path>
                    <path d="M91.6315777,309.412281 C91.6315777,309.412281 87.8420954,323.658455 88.3549577,324.897872 C88.8678199,326.137289 112.231545,355.6981 114.425456,346.552056 C116.619367,337.406013 107.159907,316.848784 107.159907,316.848784 L91.6315777,309.412281 Z" id="Path" fill="#231F20"></path>
                    <path d="M112.530715,349.016644 C105.792274,349.016644 88.2267421,326.422212 87.6996337,325.168549 C87.1725252,323.914886 89.5088977,314.626381 90.9477613,309.227081 C90.9953825,309.022196 91.1384591,308.852624 91.332408,308.771203 C91.5225974,308.685266 91.7405579,308.685266 91.9307473,308.771203 L107.459077,316.207706 C107.611656,316.275108 107.733582,316.397035 107.800985,316.549614 C108.199878,317.390138 117.331675,337.434505 115.109272,346.708764 C114.982336,347.940594 113.993227,348.905725 112.758654,349.002398 L112.530715,349.016644 Z M92.1444399,310.423759 C90.4633914,316.848784 88.8963123,323.743932 89.0815125,324.669933 C90.1214832,326.650151 107.601539,348.218859 112.758654,347.592027 C113.114808,347.592027 113.556439,347.364088 113.784378,346.381102 C115.778842,338.089829 107.701262,319.65528 106.661291,317.375892 L92.1444399,310.423759 Z" id="Shape" fill="#231F20"></path>
                </g>
            </g>
        </g>
    </g>
</svg>