<?xml version="1.0" encoding="UTF-8"?>
<svg width="58px" height="58px" viewBox="0 0 58 58" version="1.1" xmlns="http://www.w3.org/2000/svg" xmlns:xlink="http://www.w3.org/1999/xlink">
    <!-- Generator: Sketch 63.1 (92452) - https://sketch.com -->
    <title>twitter</title>
    <desc>Created with Sketch.</desc>
    <g id="twitter" stroke="none" stroke-width="1" fill="none" fill-rule="evenodd">
        <g transform="translate(4.000000, 4.000000)">
            <rect id="Rectangle-Copy-6" fill="#D8D8D8" opacity="0" x="0" y="0" width="50" height="50"></rect>
            <g id="group" transform="translate(11.000000, 14.000000)" fill="#FFFFFF" fill-rule="nonzero">
                <path d="M8.80570436,22.7852471 C19.3722727,22.7852471 25.1507179,14.0313254 25.1507179,6.44023357 C25.1507179,6.19161949 25.1456442,5.9441329 25.1344631,5.69767987 C26.2561392,4.88681836 27.2310522,3.87488576 28.0000115,2.72295504 C26.9706933,3.18053274 25.863017,3.48852857 24.7010327,3.62739917 C25.8870704,2.9162276 26.7976218,1.791169 27.2271999,0.450005957 C26.1172686,1.10799705 24.888104,1.5862456 23.5793567,1.84444345 C22.5310621,0.727841121 21.038626,0.0294478933 19.3860846,0.0294478933 C16.2136712,0.0294478933 13.6410886,2.60212447 13.6410886,5.77331642 C13.6410886,6.22412911 13.6915442,6.66253928 13.7901067,7.08319131 C9.01560756,6.84293952 4.78193334,4.55702417 1.94852205,1.08112493 C1.45514618,1.93003961 1.17063996,2.9162276 1.17063996,3.96846838 C1.17063996,5.96151522 2.18482757,7.72098133 3.72706172,8.75029625 C2.78456442,8.72116913 1.89919386,8.46240753 1.12535198,8.03179591 C1.12450636,8.05594323 1.12450636,8.07943285 1.12450636,8.10517747 C1.12450636,10.8872874 3.10468089,13.2101285 5.73326274,13.7364838 C5.25059814,13.8680256 4.74265871,13.9385884 4.21846446,13.9385884 C3.84892584,13.9385884 3.48878307,13.9022265 3.13878781,13.8350462 C3.87016046,16.117579 5.99089684,17.7785767 8.50522521,17.8249922 C6.53905049,19.3660988 4.06221155,20.283979 1.37030169,20.283979 C0.907180442,20.283979 0.449696704,20.2575767 1.1518163e-05,20.2043962 C2.54243347,21.8340117 5.56131876,22.7848713 8.80598624,22.7848713" id="Path"></path>
            </g>
        </g>
    </g>
</svg>